{
.appVersion = "1192";
copyright = "Copyright © 2015 by Viktor Suszter. All rights reserved.";
customParameters = (
{
name = description;
value = "Thi sfont is mainly for UX Ui purpose for creating wireframes. Proportions are used from Raleway, so the basic width is a bit wider.";
},
{
name = license;
value = "This Font Software is licensed under the SIL Open Font License, Version 1.1. This license is available with a FAQ at: http://scripts.sil.org/OFL";
},
{
name = licenseURL;
value = "http://scripts.sil.org/OFL";
},
{
name = glyphOrder;
value = (
.notdef,
NULL,
CR,
space,
exclam,
quotedbl,
numbersign,
dollar,
S,
percent,
fraction,
ampersand,
quotesingle,
parenleft,
parenright,
asterisk,
plus,
comma,
hyphen,
period,
slash,
zero,
one,
two,
three,
four,
five,
six,
seven,
eight,
nine,
colon,
semicolon,
less,
equal,
greater,
question,
at,
A,
B,
C,
D,
E,
F,
G,
H,
I,
J,
K,
L,
M,
N,
O,
P,
Q,
R,
T,
U,
V,
W,
X,
Y,
Z,
bracketleft,
backslash,
bracketright,
asciicircum,
underscore,
grave,
a,
b,
c,
d,
e,
f,
g,
h,
i,
j,
k,
l,
m,
n,
o,
p,
q,
r,
s,
t,
u,
v,
w,
x,
y,
z,
braceleft,
bar,
braceright,
asciitilde,
uni00A0,
exclamdown,
cent,
sterling,
currency,
yen,
brokenbar,
section,
dieresis,
copyright,
ordfeminine,
guillemotleft,
logicalnot,
uni00AD,
registered,
macron,
degree,
plusminus,
twosuperior,
threesuperior,
acute,
mu,
paragraph,
periodcentered,
cedilla,
onesuperior,
ordmasculine,
guillemotright,
onequarter,
four.denominator,
one.numerator,
onehalf,
two.denominator,
threequarters,
three.numerator,
questiondown,
Agrave,
Aacute,
Acircumflex,
circumflex,
Atilde,
tilde,
Adieresis,
Aring,
ring,
AE,
Ccedilla,
Egrave,
Eacute,
Ecircumflex,
Edieresis,
Igrave,
Iacute,
Icircumflex,
Idieresis,
Eth,
Ntilde,
Ograve,
Oacute,
Ocircumflex,
Otilde,
Odieresis,
multiply,
Oslash,
Ugrave,
Uacute,
Ucircumflex,
Udieresis,
Yacute,
Thorn,
germandbls,
agrave,
aacute,
acircumflex,
atilde,
adieresis,
aring,
ae,
ccedilla,
egrave,
eacute,
ecircumflex,
edieresis,
igrave,
dotlessi,
iacute,
icircumflex,

glyphs = (
{
glyphname = exclam;
lastChange = "2018-02-17 16:44:12 +0000";
layers = (
{
layerId = "1FDD38BC-4CDE-4118-9AAB-E6BB464D5960";
paths = (
{
closed = 1;
nodes = (
"0 0 LINE",
"283 0 LINE",
"283 521 LINE",
"0 521 LINE"
);
}
);
width = 283;
}
);
leftKerningGroup = exclam;
unicode = 0021;
},
{
glyphname = quotedbl;
lastChange = "2018-02-17 16:44:12 +0000";
layers = (
{
layerId = "1FDD38BC-4CDE-4118-9AAB-E6BB464D5960";
paths = (
{
closed = 1;
nodes = (
"0 0 LINE",
"398 0 LINE",
"398 521 LINE",
"0 521 LINE"
);
}
);
width = 398;
}
);
leftKerningGroup = quotedbl;
rightKerningGroup = quotedbl;
unicode = 0022;
},
{
glyphname = numbersign;
lastChange = "2019-03-09 10:37:00 +0000";
layers = (
{
layerId = "1FDD38BC-4CDE-4118-9AAB-E6BB464D5960";
paths = (
{
closed = 1;
nodes = (
"0 0 LINE",
"622 0 LINE",
"622 521 LINE",
"0 521 LINE"
);
}
);
width = 600;
}
);
rightKerningGroup = numbersign;
unicode = 0023;
},
{
glyphname = dollar;
lastChange = "2018-02-17 16:44:12 +0000";
layers = (
{
layerId = "1FDD38BC-4CDE-4118-9AAB-E6BB464D5960";
paths = (
{
closed = 1;
nodes = (
"0 0 LINE",
"618 0 LINE",
"618 521 LINE",
"0 521 LINE"
);
}
);
width = 618;
}
);
rightKerningGroup = numbersign;
unicode = 0024;
},
{
glyphname = S;
lastChange = "2018-02-17 16:44:12 +0000";
layers = (
{
layerId = "1FDD38BC-4CDE-4118-9AAB-E6BB464D5960";
paths = (
{
closed = 1;
nodes = (
"0 0 LINE",
"609 0 LINE",
"609 521 LINE",
"0 521 LINE"
);
}
);
width = 609;
}
);
leftKerningGroup = S;
rightKerningGroup = S;
unicode = 0053;
},
{
glyphname = percent;
lastChange = "2019-03-09 10:37:11 +0000";
layers = (
{
layerId = "1FDD38BC-4CDE-4118-9AAB-E6BB464D5960";
paths = (
{
closed = 1;
nodes = (
"0 0 LINE",
"607 0 LINE",
"607 521 LINE",
"0 521 LINE"
);
}
);
width = 600;
}
);
rightKerningGroup = numbersign;
unicode = 0025;
},
{
glyphname = fraction;
lastChange = "2018-02-17 16:44:12 +0000";
layers = (
{
layerId = "1FDD38BC-4CDE-4118-9AAB-E6BB464D5960";
paths = (
{
closed = 1;
nodes = (
"0 0 LINE",
"210 0 LINE",
"210 521 LINE",
"0 521 LINE"
);
}
);
width = 210;
}
);
leftMetricsKey = v;
rightKerningGroup = numbersign;
unicode = 2044;
},
{
glyphname = ampersand;
lastChange = "2019-03-09 10:37:23 +0000";
layers = (
{
layerId = "1FDD38BC-4CDE-4118-9AAB-E6BB464D5960";
paths = (
{
closed = 1;
nodes = (
"0 0 LINE",
"621 0 LINE",
"621 521 LINE",
"0 521 LINE"
);
}
);
width = 600;
}
);
leftKerningGroup = ampersand;
rightKerningGroup = ampersand;
unicode = 0026;
},
{
glyphname = quotesingle;
lastChange = "2018-02-17 16:44:12 +0000";
layers = (
{
layerId = "1FDD38BC-4CDE-4118-9AAB-E6BB464D5960";
paths = (
{
closed = 1;
nodes = (
"0 0 LINE",
"243 0 LINE",
"243 521 LINE",
"0 521 LINE"
);
}
);
width = 243;
}
);
leftKerningGroup = quotedbl;
rightKerningGroup = quotedbl;
unicode = 0027;
},
{
glyphname = parenleft;
lastChange = "2018-02-17 16:44:12 +0000";
layers = (
{
layerId = "1FDD38BC-4CDE-4118-9AAB-E6BB464D5960";
paths = (
{
closed = 1;
nodes = (
"0 0 LINE",
"272 0 LINE",
"272 521 LINE",
"0 521 LINE"
);
}
);
width = 272;
}
);
rightKerningGroup = parenleft;
unicode = 0028;
},
{
glyphname = parenright;
lastChange = "2018-02-17 16:44:12 +0000";
layers = (
{
layerId = "1FDD38BC-4CDE-4118-9AAB-E6BB464D5960";
paths = (
{
closed = 1;
nodes = (
"0 0 LINE",
"272 0 LINE",
"272 521 LINE",
"0 521 LINE"
);
}
);
width = 272;
}
);
leftKerningGroup = parenright;
rightKerningGroup = numbersign;
unicode = 0029;
},
{
glyphname = asterisk;
lastChange = "2018-02-17 16:44:12 +0000";
layers = (
{
layerId = "1FDD38BC-4CDE-4118-9AAB-E6BB464D5960";
paths = (
{
closed = 1;
nodes = (
"0 0 LINE",
"321 0 LINE",
"321 521 LINE",
"0 521 LINE"
);
}
);
width = 321;
}
);
leftKerningGroup = asterisk;
rightKerningGroup = asterisk;
unicode = 002A;
},
{
glyphname = plus;
lastChange = "2018-02-17 16:44:12 +0000";
layers = (
{
layerId = "1FDD38BC-4CDE-4118-9AAB-E6BB464D5960";
paths = (
{
closed = 1;
nodes = (
"0 0 LINE",
"419 0 LINE",
"419 521 LINE",
"0 521 LINE"
);
}
);
width = 419;
}
);
rightKerningGroup = numbersign;
unicode = 002B;
},
{
glyphname = comma;
lastChange = "2018-02-17 16:44:12 +0000";
layers = (
{
layerId = "1FDD38BC-4CDE-4118-9AAB-E6BB464D5960";
paths = (
{
closed = 1;
nodes = (
"0 0 LINE",
"228 0 LINE",
"228 521 LINE",
"0 521 LINE"
);
}
);
width = 228;
}
);
leftKerningGroup = comma;
rightKerningGroup = comma;
unicode = 002C;
},
{
glyphname = hyphen;
lastChange = "2018-02-17 16:44:12 +0000";
layers = (
{
layerId = "1FDD38BC-4CDE-4118-9AAB-E6BB464D5960";
paths = (
{
closed = 1;
nodes = (
"0 0 LINE",
"425 0 LINE",
"425 521 LINE",
"0 521 LINE"
);
}
);
width = 425;
}
);
leftKerningGroup = hyphen;
rightKerningGroup = hyphen;
unicode = 002D;
},
{
glyphname = period;
lastChange = "2018-02-17 16:44:12 +0000";
layers = (
{
layerId = "1FDD38BC-4CDE-4118-9AAB-E6BB464D5960";
paths = (
{
closed = 1;
nodes = (
"0 0 LINE",
"193 0 LINE",
"193 521 LINE",
"0 521 LINE"
);
}
);
width = 193;
}
);
leftKerningGroup = comma;
rightKerningGroup = comma;
unicode = 002E;
},
{
glyphname = slash;
lastChange = "2018-02-17 16:44:12 +0000";
layers = (
{
layerId = "1FDD38BC-4CDE-4118-9AAB-E6BB464D5960";
paths = (
{
closed = 1;
nodes = (
"0 0 LINE",
"423 0 LINE",
"423 521 LINE",
"0 521 LINE"
);
}
);
width = 423;
}
);
leftKerningGroup = slash;
rightKerningGroup = slash;
unicode = 002F;
},
{
glyphname = one;
lastChange = "2018-02-17 16:44:12 +0000";
layers = (
{
layerId = "1FDD38BC-4CDE-4118-9AAB-E6BB464D5960";
paths = (
{
closed = 1;
nodes = (
"0 0 LINE",
"418 0 LINE",
"418 521 LINE",
"0 521 LINE"
);
}
);
width = 418;
}
);
leftKerningGroup = one.lnum;
rightKerningGroup = one.lnum;
unicode = 0031;
},
{
glyphname = two;
lastChange = "2018-02-17 16:44:12 +0000";
layers = (
{
layerId = "1FDD38BC-4CDE-4118-9AAB-E6BB464D5960";
paths = (
{
closed = 1;
nodes = (
"0 0 LINE",
"583 0 LINE",
"583 521 LINE",
"0 521 LINE"
);
}
);
width = 583;
}
);
rightKerningGroup = two.lnum;
unicode = 0032;
},
{
glyphname = three;
lastChange = "2018-02-17 16:44:12 +0000";
layers = (
{
layerId = "1FDD38BC-4CDE-4118-9AAB-E6BB464D5960";
paths = (
{
closed = 1;
nodes = (
"0 0 LINE",
"586 0 LINE",
"586 521 LINE",
"0 521 LINE"
);
}
);
width = 586;
}
);
rightKerningGroup = numbersign;
unicode = 0033;
},
{
glyphname = five;
lastChange = "2018-02-17 16:44:12 +0000";
layers = (
{
layerId = "1FDD38BC-4CDE-4118-9AAB-E6BB464D5960";
paths = (
{
closed = 1;
nodes = (
"0 0 LINE",
"558 0 LINE",
"558 521 LINE",
"0 521 LINE"
);
}
);
width = 558;
}
);
rightKerningGroup = numbersign;
unicode = 0035;
},
{
glyphname = seven;
lastChange = "2018-02-17 16:44:12 +0000";
layers = (
{
layerId = "1FDD38BC-4CDE-4118-9AAB-E6BB464D5960";
paths = (
{
closed = 1;
nodes = (
"0 0 LINE",
"523 0 LINE",
"523 521 LINE",
"0 521 LINE"
);
}
);
width = 523;
}
);
leftKerningGroup = seven.lnum;
rightKerningGroup = seven.lnum;
unicode = 0037;
},
{
glyphname = eight;
lastChange = "2018-02-17 16:44:12 +0000";
layers = (
{
layerId = "1FDD38BC-4CDE-4118-9AAB-E6BB464D5960";
paths = (
{
closed = 1;
nodes = (
"0 0 LINE",
"595 0 LINE",
"595 521 LINE",
"0 521 LINE"
);
}
);
width = 595;
}
);
rightKerningGroup = numbersign;
unicode = 0038;
},
{
glyphname = nine;
lastChange = "2018-02-17 16:44:12 +0000";
layers = (
{
layerId = "1FDD38BC-4CDE-4118-9AAB-E6BB464D5960";
paths = (
{
closed = 1;
nodes = (
"0 0 LINE",
"605 0 LINE",
"605 521 LINE",
"0 521 LINE"
);
}
);
width = 605;
}
);
rightKerningGroup = nine.lnum;
unicode = 0039;
},
{
glyphname = colon;
lastChange = "2018-02-17 16:44:12 +0000";
layers = (
{
layerId = "1FDD38BC-4CDE-4118-9AAB-E6BB464D5960";
paths = (
{
closed = 1;
nodes = (
"0 0 LINE",
"190 0 LINE",
"190 521 LINE",
"0 521 LINE"
);
}
);
width = 190;
}
);
leftKerningGroup = colon;
rightKerningGroup = colon;
unicode = 003A;
},
{
glyphname = semicolon;
lastChange = "2018-02-17 16:44:12 +0000";
layers = (
{
layerId = "1FDD38BC-4CDE-4118-9AAB-E6BB464D5960";
paths = (
{
closed = 1;
nodes = (
"0 0 LINE",
"208 0 LINE",
"208 521 LINE",
"0 521 LINE"
);
}
);
width = 208;
}
);
leftKerningGroup = colon;
rightKerningGroup = colon;
unicode = 003B;
},
{
glyphname = less;
lastChange = "2018-02-17 16:44:12 +0000";
layers = (
{
layerId = "1FDD38BC-4CDE-4118-9AAB-E6BB464D5960";
paths = (
{
closed = 1;
nodes = (
"0 0 LINE",
"510 0 LINE",
"510 521 LINE",
"0 521 LINE"
);
}
);
width = 510;
}
);
rightKerningGroup = numbersign;
unicode = 003C;
},
{
glyphname = equal;
lastChange = "2018-02-17 16:44:12 +0000";
layers = (
{
layerId = "1FDD38BC-4CDE-4118-9AAB-E6BB464D5960";
paths = (
{
closed = 1;
nodes = (
"0 0 LINE",
"441 0 LINE",
"441 521 LINE",
"0 521 LINE"
);
}
);
width = 441;
}
);
rightKerningGroup = numbersign;
unicode = 003D;
},
{
glyphname = greater;
lastChange = "2018-02-17 16:44:12 +0000";
layers = (
{
layerId = "1FDD38BC-4CDE-4118-9AAB-E6BB464D5960";
paths = (
{
closed = 1;
nodes = (
"0 0 LINE",
"510 0 LINE",
"510 521 LINE",
"0 521 LINE"
);
}
);
width = 510;
}
);
rightKerningGroup = numbersign;
unicode = 003E;
},
{
glyphname = question;
lastChange = "2018-02-17 16:44:12 +0000";
layers = (
{
layerId = "1FDD38BC-4CDE-4118-9AAB-E6BB464D5960";
paths = (
{
closed = 1;
nodes = (
"0 0 LINE",
"479 0 LINE",
"479 521 LINE",
"0 521 LINE"
);
}
);
width = 479;
}
);
leftKerningGroup = question;
rightKerningGroup = numbersign;
unicode = 003F;
},
{
glyphname = at;
lastChange = "2019-03-09 10:25:35 +0000";
layers = (
{
layerId = "1FDD38BC-4CDE-4118-9AAB-E6BB464D5960";
paths = (
{
closed = 1;
nodes = (
"0 0 LINE",
"653 0 LINE",
"653 521 LINE",
"0 521 LINE"
);
}
);
width = 640;
}
);
leftKerningGroup = at;
rightKerningGroup = at;
unicode = 0040;
},
{
glyphname = B;
lastChange = "2018-02-17 16:44:12 +0000";
layers = (
{
layerId = "1FDD38BC-4CDE-4118-9AAB-E6BB464D5960";
paths = (
{
closed = 1;
nodes = (
"0 0 LINE",
"668 0 LINE",
"668 521 LINE",
"0 521 LINE"
);
}
);
width = 668;
}
);
leftKerningGroup = B;
rightKerningGroup = B;
unicode = 0042;
},
{
glyphname = C;
lastChange = "2019-03-09 20:16:33 +0000";
layers = (
{
layerId = "1FDD38BC-4CDE-4118-9AAB-E6BB464D5960";
paths = (
{
closed = 1;
nodes = (
"0 0 LINE",
"558 0 LINE",
"558 521 LINE",
"0 521 LINE"
);
}
);
width = 540;
}
);
leftKerningGroup = C;
rightKerningGroup = C;
unicode = 0043;
},
{
glyphname = D;
lastChange = "2019-03-09 10:29:37 +0000";
layers = (
{
layerId = "1FDD38BC-4CDE-4118-9AAB-E6BB464D5960";
paths = (
{
closed = 1;
nodes = (
"0 0 LINE",
"657 0 LINE",
"657 521 LINE",
"0 521 LINE"
);
}
);
width = 640;
}
);
leftKerningGroup = B;
rightKerningGroup = D;
unicode = 0044;
},
{
glyphname = F;
lastChange = "2018-02-17 16:44:12 +0000";
layers = (
{
layerId = "1FDD38BC-4CDE-4118-9AAB-E6BB464D5960";
paths = (
{
closed = 1;
nodes = (
"0 0 LINE",
"591 0 LINE",
"591 521 LINE",
"0 521 LINE"
);
}
);
width = 591;
}
);
leftKerningGroup = B;
rightKerningGroup = F;
unicode = 0046;
},
{
glyphname = G;
lastChange = "2019-03-09 20:16:55 +0000";
layers = (
{
layerId = "1FDD38BC-4CDE-4118-9AAB-E6BB464D5960";
paths = (
{
closed = 1;
nodes = (
"0 0 LINE",
"594 0 LINE",
"594 521 LINE",
"0 521 LINE"
);
}
);
width = 580;
}
);
leftKerningGroup = C;
rightKerningGroup = G.alt;
unicode = 0047;
},
{
glyphname = H;
lastChange = "2019-03-09 10:29:09 +0000";
layers = (
{
layerId = "1FDD38BC-4CDE-4118-9AAB-E6BB464D5960";
paths = (
{
closed = 1;
nodes = (
"0 0 LINE",
"650 0 LINE",
"650 521 LINE",
"0 521 LINE"
);
}
);
width = 640;
}
);
leftKerningGroup = B;
rightKerningGroup = H;
unicode = 0048;
},
{
glyphname = I;
lastChange = "2018-02-17 16:44:12 +0000";
layers = (
{
layerId = "1FDD38BC-4CDE-4118-9AAB-E6BB464D5960";
paths = (
{
closed = 1;
nodes = (
"0 0 LINE",
"250 0 LINE",
"250 521 LINE",
"0 521 LINE"
);
}
);
width = 250;
}
);
leftKerningGroup = B;
rightKerningGroup = H;
unicode = 0049;
},
{
glyphname = J;
lastChange = "2018-02-17 16:44:12 +0000";
layers = (
{
layerId = "1FDD38BC-4CDE-4118-9AAB-E6BB464D5960";
paths = (
{
closed = 1;
nodes = (
"0 0 LINE",
"483 0 LINE",
"483 521 LINE",
"0 521 LINE"
);
}
);
width = 483;
}
);
leftKerningGroup = J;
rightKerningGroup = J;
unicode = 004A;
},
{
glyphname = K;
lastChange = "2018-02-17 16:44:12 +0000";
layers = (
{
layerId = "1FDD38BC-4CDE-4118-9AAB-E6BB464D5960";
paths = (
{
closed = 1;
nodes = (
"0 0 LINE",
"644 0 LINE",
"644 521 LINE",
"0 521 LINE"
);
}
);
width = 644;
}
);
leftKerningGroup = B;
rightKerningGroup = K;
unicode = 004B;
},
{
glyphname = L;
lastChange = "2019-03-09 20:17:33 +0000";
layers = (
{
layerId = "1FDD38BC-4CDE-4118-9AAB-E6BB464D5960";
paths = (
{
closed = 1;
nodes = (
"0 0 LINE",
"535 0 LINE",
"535 521 LINE",
"0 521 LINE"
);
}
);
width = 520;
}
);
leftKerningGroup = B;
rightKerningGroup = L;
unicode = 004C;
},
{
glyphname = M;
lastChange = "2019-03-09 10:33:52 +0000";
layers = (
{
layerId = "1FDD38BC-4CDE-4118-9AAB-E6BB464D5960";
paths = (
{
closed = 1;
nodes = (
"0 0 LINE",
"610 0 LINE",
"610 521 LINE",
"0 521 LINE"
);
}
);
width = 600;
}
);
leftKerningGroup = B;
rightKerningGroup = H;
unicode = 004D;
},
{
glyphname = O;
lastChange = "2019-03-09 10:34:08 +0000";
layers = (
{
anchors = (
{
name = top;
position = "{377, 710}";
}
);
layerId = "1FDD38BC-4CDE-4118-9AAB-E6BB464D5960";
paths = (
{
closed = 1;
nodes = (
"0 0 LINE",
"613 0 LINE",
"613 521 LINE",
"0 521 LINE"
);
}
);
width = 600;
}
);
leftKerningGroup = C;
rightKerningGroup = O;
unicode = 004F;
},
{
glyphname = P;
lastChange = "2019-03-09 10:34:26 +0000";
layers = (
{
layerId = "1FDD38BC-4CDE-4118-9AAB-E6BB464D5960";
paths = (
{
closed = 1;
nodes = (
"0 0 LINE",
"614 0 LINE",
"614 521 LINE",
"0 521 LINE"
);
}
);
width = 600;
}
);
leftKerningGroup = B;
rightKerningGroup = P;
unicode = 0050;
},
{
glyphname = Q;
lastChange = "2019-03-09 10:29:23 +0000";
layers = (
{
layerId = "1FDD38BC-4CDE-4118-9AAB-E6BB464D5960";
paths = (
{
closed = 1;
nodes = (
"0 0 LINE",
"661 0 LINE",
"661 521 LINE",
"0 521 LINE"
);
}
);
width = 640;
}
);
leftKerningGroup = C;
rightKerningGroup = O;
unicode = 0051;
},
{
glyphname = R;
lastChange = "2018-02-17 16:44:12 +0000";
layers = (
{
layerId = "1FDD38BC-4CDE-4118-9AAB-E6BB464D5960";
paths = (
{
closed = 1;
nodes = (
"0 0 LINE",
"655 0 LINE",
"655 521 LINE",
"0 521 LINE"
);
}
);
width = 655;
}
);
leftKerningGroup = B;
rightKerningGroup = R;
unicode = 0052;
},
{
glyphname = W;
lastChange = "2019-03-09 10:24:48 +0000";
layers = (
{
layerId = "1FDD38BC-4CDE-4118-9AAB-E6BB464D5960";
paths = (
{
closed = 1;
nodes = (
"0 0 LINE",
"650 0 LINE",
"650 521 LINE",
"0 521 LINE"
);
}
);
width = 640;
}
);
leftKerningGroup = W.alt;
rightKerningGroup = W.alt;
unicode = 0057;
},
{
glyphname = bracketleft;
lastChange = "2018-02-17 16:44:12 +0000";
layers = (
{
layerId = "1FDD38BC-4CDE-4118-9AAB-E6BB464D5960";
paths = (
{
closed = 1;
nodes = (
"0 0 LINE",
"260 0 LINE",
"260 521 LINE",
"0 521 LINE"
);
}
);
width = 260;
}
);
rightKerningGroup = bracketleft;
unicode = 005B;
},
{
glyphname = backslash;
lastChange = "2018-02-17 16:44:12 +0000";
layers = (
{
layerId = "1FDD38BC-4CDE-4118-9AAB-E6BB464D5960";
paths = (
{
closed = 1;
nodes = (
"0 0 LINE",
"422 0 LINE",
"422 521 LINE",
"0 521 LINE"
);
}
);
width = 422;
}
);
leftKerningGroup = backslash;
rightKerningGroup = backslash;
unicode = 005C;
},
{
glyphname = bracketright;
lastChange = "2018-02-17 16:44:12 +0000";
layers = (
{
layerId = "1FDD38BC-4CDE-4118-9AAB-E6BB464D5960";
paths = (
{
closed = 1;
nodes = (
"0 0 LINE",
"261 0 LINE",
"261 521 LINE",
"0 521 LINE"
);
}
);
width = 261;
}
);
leftKerningGroup = bracketright;
rightKerningGroup = numbersign;
unicode = 005D;
},
{
glyphname = asciicircum;
lastChange = "2018-02-17 16:44:12 +0000";
layers = (
{
layerId = "1FDD38BC-4CDE-4118-9AAB-E6BB464D5960";
paths = (
{
closed = 1;
nodes = (
"0 0 LINE",
"543 0 LINE",
"543 521 LINE",
"0 521 LINE"
);
}
);
width = 543;
}
);
rightKerningGroup = numbersign;
unicode = 005E;
},
{
glyphname = underscore;
lastChange = "2018-02-17 16:44:12 +0000";
layers = (
{
layerId = "1FDD38BC-4CDE-4118-9AAB-E6BB464D5960";
paths = (
{
closed = 1;
nodes = (
"0 0 LINE",
"515 0 LINE",
"515 521 LINE",
"0 521 LINE"
);
}
);
width = 515;
}
);
rightKerningGroup = numbersign;
unicode = 005F;
},
{
glyphname = a;
lastChange = "2019-03-09 10:34:54 +0000";
layers = (
{
layerId = "1FDD38BC-4CDE-4118-9AAB-E6BB464D5960";
paths = (
{
closed = 1;
nodes = (
"0 0 LINE",
"514 0 LINE",
"514 521 LINE",
"0 521 LINE"
);
}
);
width = 500;
}
);
leftKerningGroup = a;
rightKerningGroup = a.alt2;
unicode = 0061;
},
{
glyphname = b;
lastChange = "2019-03-09 10:35:05 +0000";
layers = (
{
layerId = "1FDD38BC-4CDE-4118-9AAB-E6BB464D5960";
paths = (
{
closed = 1;
nodes = (
"0 0 LINE",
"559 0 LINE",
"559 521 LINE",
"0 521 LINE"
);
}
);
width = 540;
}
);
leftKerningGroup = b;
rightKerningGroup = b;
unicode = 0062;
},
{
glyphname = f;
lastChange = "2018-02-17 16:44:12 +0000";
layers = (
{
layerId = "1FDD38BC-4CDE-4118-9AAB-E6BB464D5960";
paths = (
{
closed = 1;
nodes = (
"0 0 LINE",
"347 0 LINE",
"347 521 LINE",
"0 521 LINE"
);
}
);
width = 347;
}
);
leftKerningGroup = f;
rightKerningGroup = f;
unicode = 0066;
},
{
glyphname = i;
lastChange = "2018-02-17 16:44:12 +0000";
layers = (
{
layerId = "1FDD38BC-4CDE-4118-9AAB-E6BB464D5960";
paths = (
{
closed = 1;
nodes = (
"0 0 LINE",
"220 0 LINE",
"220 521 LINE",
"0 521 LINE"
);
}
);
width = 220;
}
);
leftKerningGroup = i;
rightKerningGroup = i;
unicode = 0069;
},
{
glyphname = j;
lastChange = "2018-02-17 16:44:12 +0000";
layers = (
{
layerId = "1FDD38BC-4CDE-4118-9AAB-E6BB464D5960";
paths = (
{
closed = 1;
nodes = (
"0 0 LINE",
"220 0 LINE",
"220 521 LINE",
"0 521 LINE"
);
}
);
width = 220;
}
);
leftKerningGroup = i;
rightKerningGroup = i;
unicode = 006A;
},
{
glyphname = k;
lastChange = "2019-03-09 10:41:11 +0000";
layers = (
{
anchors = (
{
name = bottom;
position = "{282, 0}";
}
);
layerId = "1FDD38BC-4CDE-4118-9AAB-E6BB464D5960";
paths = (
{
closed = 1;
nodes = (
"0 0 LINE",
"512 0 LINE",
"512 521 LINE",
"0 521 LINE"
);
}
);
width = 420;
}
);
leftKerningGroup = b;
rightKerningGroup = k;
unicode = 006B;
},
{
glyphname = l;
lastChange = "2018-02-17 16:44:12 +0000";
layers = (
{
layerId = "1FDD38BC-4CDE-4118-9AAB-E6BB464D5960";
paths = (
{
closed = 1;
nodes = (
"0 0 LINE",
"231 0 LINE",
"231 521 LINE",
"0 521 LINE"
);
}
);
width = 231;
}
);
rightKerningGroup = numbersign;
unicode = 006C;
},
{
glyphname = m;
lastChange = "2019-03-09 20:27:14 +0000";
layers = (
{
layerId = "1FDD38BC-4CDE-4118-9AAB-E6BB464D5960";
paths = (
{
closed = 1;
nodes = (
"0 0 LINE",
"690 0 LINE",
"690 521 LINE",
"0 521 LINE"
);
}
);
width = 680;
}
);
leftKerningGroup = m;
rightKerningGroup = m;
unicode = 006D;
},
{
glyphname = r;
lastChange = "2018-02-17 16:44:12 +0000";
layers = (
{
layerId = "1FDD38BC-4CDE-4118-9AAB-E6BB464D5960";
paths = (
{
closed = 1;
nodes = (
"0 0 LINE",
"353 0 LINE",
"353 521 LINE",
"0 521 LINE"
);
}
);
width = 353;
}
);
leftKerningGroup = m;
rightKerningGroup = r;
unicode = 0072;
},
{
glyphname = s;
lastChange = "2018-02-17 16:44:12 +0000";
layers = (
{
layerId = "1FDD38BC-4CDE-4118-9AAB-E6BB464D5960";
paths = (
{
closed = 1;
nodes = (
"0 0 LINE",
"489 0 LINE",
"489 521 LINE",
"0 521 LINE"
);
}
);
width = 489;
}
);
leftKerningGroup = s;
rightKerningGroup = s;
unicode = 0073;
},
{
glyphname = t;
lastChange = "2018-02-17 16:44:12 +0000";
layers = (
{
layerId = "1FDD38BC-4CDE-4118-9AAB-E6BB464D5960";
paths = (
{
closed = 1;
nodes = (
"0 0 LINE",
"338 0 LINE",
"338 521 LINE",
"0 521 LINE"
);
}
);
width = 338;
}
);
leftKerningGroup = t;
rightKerningGroup = t;
unicode = 0074;
},
{
glyphname = v;
lastChange = "2018-02-17 16:44:12 +0000";
layers = (
{
layerId = "1FDD38BC-4CDE-4118-9AAB-E6BB464D5960";
paths = (
{
closed = 1;
nodes = (
"0 0 LINE",
"536 0 LINE",
"536 521 LINE",
"0 521 LINE"
);
}
);
width = 536;
}
);
leftKerningGroup = v;
rightKerningGroup = v;
unicode = 0076;
},
{
glyphname = w;
lastChange = "2019-03-09 10:36:41 +0000";
layers = (
{
layerId = "1FDD38BC-4CDE-4118-9AAB-E6BB464D5960";
paths = (
{
closed = 1;
nodes = (
"0 0 LINE",
"621 0 LINE",
"621 521 LINE",
"0 521 LINE"
);
}
);
width = 600;
}
);
leftKerningGroup = w.alt;
rightKerningGroup = w.alt;
unicode = 0077;
},
{
glyphname = z;
lastChange = "2018-02-17 16:44:12 +0000";
layers = (
{
layerId = "1FDD38BC-4CDE-4118-9AAB-E6BB464D5960";
paths = (
{
closed = 1;
nodes = (
"0 0 LINE",
"494 0 LINE",
"494 521 LINE",
"0 521 LINE"
);
}
);
width = 494;
}
);
leftKerningGroup = z;
rightKerningGroup = z;
unicode = 007A;
},
{
glyphname = braceleft;
lastChange = "2018-02-17 16:44:12 +0000";
layers = (
{
layerId = "1FDD38BC-4CDE-4118-9AAB-E6BB464D5960";
paths = (
{
closed = 1;
nodes = (
"0 0 LINE",
"261 0 LINE",
"261 521 LINE",
"0 521 LINE"
);
}
);
width = 261;
}
);
rightKerningGroup = braceleft;
unicode = 007B;
},
{
glyphname = bar;
lastChange = "2018-02-17 16:44:12 +0000";
layers = (
{
layerId = "1FDD38BC-4CDE-4118-9AAB-E6BB464D5960";
paths = (
{
closed = 1;
nodes = (
"0 0 LINE",
"233 0 LINE",
"233 521 LINE",
"0 521 LINE"
);
}
);
width = 233;
}
);
rightKerningGroup = numbersign;
unicode = 007C;
},
{
glyphname = braceright;
lastChange = "2018-02-17 16:44:12 +0000";
layers = (
{
layerId = "1FDD38BC-4CDE-4118-9AAB-E6BB464D5960";
paths = (
{
closed = 1;
nodes = (
"0 0 LINE",
"262 0 LINE",
"262 521 LINE",
"0 521 LINE"
);
}
);
width = 262;
}
);
leftKerningGroup = braceright;
rightKerningGroup = numbersign;
unicode = 007D;
},
{
glyphname = asciitilde;
lastChange = "2018-02-17 16:44:12 +0000";
layers = (
{
layerId = "1FDD38BC-4CDE-4118-9AAB-E6BB464D5960";
paths = (
{
closed = 1;
nodes = (
"0 0 LINE",
"513 0 LINE",
"513 521 LINE",
"0 521 LINE"
);
}
);
width = 513;
}
);
rightKerningGroup = numbersign;
unicode = 007E;
},
{
glyphname = exclamdown;
lastChange = "2018-02-17 16:44:12 +0000";
layers = (
{
layerId = "1FDD38BC-4CDE-4118-9AAB-E6BB464D5960";
paths = (
{
closed = 1;
nodes = (
"0 0 LINE",
"283 0 LINE",
"283 521 LINE",
"0 521 LINE"
);
}
);
width = 283;
}
);
rightKerningGroup = exclamdown;
unicode = 00A1;
},
{
glyphname = cent;
lastChange = "2018-02-17 16:44:12 +0000";
layers = (
{
layerId = "1FDD38BC-4CDE-4118-9AAB-E6BB464D5960";
paths = (
{
closed = 1;
nodes = (
"0 0 LINE",
"563 0 LINE",
"563 521 LINE",
"0 521 LINE"
);
}
);
width = 563;
}
);
rightKerningGroup = numbersign;
unicode = 00A2;
},
{
glyphname = sterling;
lastChange = "2018-02-17 16:44:12 +0000";
layers = (
{
layerId = "1FDD38BC-4CDE-4118-9AAB-E6BB464D5960";
paths = (
{
closed = 1;
nodes = (
"0 0 LINE",
"501 0 LINE",
"501 521 LINE",
"0 521 LINE"
);
}
);
width = 501;
}
);
rightKerningGroup = numbersign;
unicode = 00A3;
},
{
glyphname = currency;
lastChange = "2018-02-17 16:44:12 +0000";
layers = (
{
layerId = "1FDD38BC-4CDE-4118-9AAB-E6BB464D5960";
paths = (
{
closed = 1;
nodes = (
"0 0 LINE",
"540 0 LINE",
"540 521 LINE",
"0 521 LINE"
);
}
);
width = 540;
}
);
rightKerningGroup = numbersign;
unicode = 00A4;
},
{
glyphname = yen;
lastChange = "2018-02-17 16:44:12 +0000";
layers = (
{
layerId = "1FDD38BC-4CDE-4118-9AAB-E6BB464D5960";
paths = (
{
closed = 1;
nodes = (
"0 0 LINE",
"680 0 LINE",
"680 521 LINE",
"0 521 LINE"
);
}
);
width = 680;
}
);
rightKerningGroup = numbersign;
unicode = 00A5;
},
{
glyphname = brokenbar;
lastChange = "2018-02-17 16:44:12 +0000";
layers = (
{
layerId = "1FDD38BC-4CDE-4118-9AAB-E6BB464D5960";
paths = (
{
closed = 1;
nodes = (
"0 0 LINE",
"237 0 LINE",
"237 521 LINE",
"0 521 LINE"
);
}
);
width = 237;
}
);
rightKerningGroup = numbersign;
unicode = 00A6;
},
{
glyphname = section;
lastChange = "2018-02-17 16:44:12 +0000";
layers = (
{
layerId = "1FDD38BC-4CDE-4118-9AAB-E6BB464D5960";
paths = (
{
closed = 1;
nodes = (
"0 0 LINE",
"510 0 LINE",
"510 521 LINE",
"0 521 LINE"
);
}
);
width = 510;
}
);
rightKerningGroup = numbersign;
unicode = 00A7;
},
{
glyphname = copyright;
lastChange = "2018-02-17 16:44:12 +0000";
layers = (
{
layerId = "1FDD38BC-4CDE-4118-9AAB-E6BB464D5960";
paths = (
{
closed = 1;
nodes = (
"0 0 LINE",
"836 0 LINE",
"836 521 LINE",
"0 521 LINE"
);
}
);
width = 836;
}
);
leftKerningGroup = copyright;
rightKerningGroup = numbersign;
unicode = 00A9;
},
{
glyphname = ordfeminine;
lastChange = "2018-02-17 16:44:12 +0000";
layers = (
{
layerId = "1FDD38BC-4CDE-4118-9AAB-E6BB464D5960";
paths = (
{
closed = 1;
nodes = (
"0 0 LINE",
"436 0 LINE",
"436 521 LINE",
"0 521 LINE"
);
}
);
width = 436;
}
);
leftKerningGroup = ordfeminine;
rightKerningGroup = numbersign;
unicode = 00AA;
},
{
glyphname = guillemotleft;
lastChange = "2018-02-17 16:44:12 +0000";
layers = (
{
layerId = "1FDD38BC-4CDE-4118-9AAB-E6BB464D5960";
paths = (
{
closed = 1;
nodes = (
"0 0 LINE",
"576 0 LINE",
"576 521 LINE",
"0 521 LINE"
);
}
);
width = 576;
}
);
leftKerningGroup = guillemotleft;
rightKerningGroup = guillemotleft;
unicode = 00AB;
},
{
glyphname = logicalnot;
lastChange = "2018-02-17 16:44:12 +0000";
layers = (
{
layerId = "1FDD38BC-4CDE-4118-9AAB-E6BB464D5960";
paths = (
{
closed = 1;
nodes = (
"0 0 LINE",
"584 0 LINE",
"584 521 LINE",
"0 521 LINE"
);
}
);
width = 584;
}
);
rightKerningGroup = numbersign;
unicode = 00AC;
},
{
glyphname = uni00AD;
lastChange = "2018-02-17 16:44:12 +0000";
layers = (
{
layerId = "1FDD38BC-4CDE-4118-9AAB-E6BB464D5960";
paths = (
{
closed = 1;
nodes = (
"0 0 LINE",
"575 0 LINE",
"575 521 LINE",
"0 521 LINE"
);
}
);
width = 575;
}
);
leftKerningGroup = hyphen;
rightKerningGroup = hyphen;
unicode = 00AD;
},
{
glyphname = registered;
lastChange = "2018-02-17 16:44:12 +0000";
layers = (
{
layerId = "1FDD38BC-4CDE-4118-9AAB-E6BB464D5960";
paths = (
{
closed = 1;
nodes = (
"0 0 LINE",
"836 0 LINE",
"836 521 LINE",
"0 521 LINE"
);
}
);
width = 836;
}
);
leftKerningGroup = registered;
rightKerningGroup = numbersign;
unicode = 00AE;
},
{
glyphname = degree;
lastChange = "2018-02-17 16:44:12 +0000";
layers = (
{
layerId = "1FDD38BC-4CDE-4118-9AAB-E6BB464D5960";
paths = (
{
closed = 1;
nodes = (
"0 0 LINE",
"269 0 LINE",
"269 521 LINE",
"0 521 LINE"
);
}
);
width = 269;
}
);
rightKerningGroup = numbersign;
unicode = 00B0;
},
{
glyphname = plusminus;
lastChange = "2018-02-17 16:44:12 +0000";
layers = (
{
layerId = "1FDD38BC-4CDE-4118-9AAB-E6BB464D5960";
paths = (
{
closed = 1;
nodes = (
"0 0 LINE",
"469 0 LINE",
"469 521 LINE",
"0 521 LINE"
);
}
);
width = 469;
}
);
rightKerningGroup = numbersign;
unicode = 00B1;
},
{
glyphname = twosuperior;
lastChange = "2018-02-17 16:44:12 +0000";
layers = (
{
layerId = "1FDD38BC-4CDE-4118-9AAB-E6BB464D5960";
paths = (
{
closed = 1;
nodes = (
"0 0 LINE",
"390 0 LINE",
"390 521 LINE",
"0 521 LINE"
);
}
);
width = 390;
}
);
rightKerningGroup = numbersign;
unicode = 00B2;
},
{
glyphname = threesuperior;
lastChange = "2018-02-17 16:44:12 +0000";
layers = (
{
layerId = "1FDD38BC-4CDE-4118-9AAB-E6BB464D5960";
paths = (
{
closed = 1;
nodes = (
"0 0 LINE",
"392 0 LINE",
"392 521 LINE",
"0 521 LINE"
);
}
);
width = 392;
}
);
rightKerningGroup = numbersign;
unicode = 00B3;
},
{
glyphname = mu;
lastChange = "2018-02-17 16:44:12 +0000";
layers = (
{
layerId = "1FDD38BC-4CDE-4118-9AAB-E6BB464D5960";
paths = (
{
closed = 1;
nodes = (
"0 0 LINE",
"626 0 LINE",
"626 521 LINE",
"0 521 LINE"
);
}
);
width = 626;
}
);
rightKerningGroup = numbersign;
unicode = 00B5;
},
{
glyphname = paragraph;
lastChange = "2018-02-17 16:44:12 +0000";
layers = (
{
layerId = "1FDD38BC-4CDE-4118-9AAB-E6BB464D5960";
paths = (
{
closed = 1;
nodes = (
"0 0 LINE",
"604 0 LINE",
"604 521 LINE",
"0 521 LINE"
);
}
);
width = 604;
}
);
rightKerningGroup = numbersign;
unicode = 00B6;
},
{
glyphname = periodcentered;
lastChange = "2018-02-17 16:44:12 +0000";
layers = (
{
layerId = "1FDD38BC-4CDE-4118-9AAB-E6BB464D5960";
paths = (
{
closed = 1;
nodes = (
"0 0 LINE",
"192 0 LINE",
"192 521 LINE",
"0 521 LINE"
);
}
);
width = 192;
}
);
leftKerningGroup = periodcentered;
rightKerningGroup = periodcentered;
unicode = 00B7;
},
{
glyphname = onesuperior;
lastChange = "2018-02-17 16:44:12 +0000";
layers = (
{
layerId = "1FDD38BC-4CDE-4118-9AAB-E6BB464D5960";
paths = (
{
closed = 1;
nodes = (
"0 0 LINE",
"274 0 LINE",
"274 521 LINE",
"0 521 LINE"
);
}
);
width = 274;
}
);
rightKerningGroup = numbersign;
unicode = 00B9;
},
{
glyphname = ordmasculine;
lastChange = "2018-02-17 16:44:12 +0000";
layers = (
{
layerId = "1FDD38BC-4CDE-4118-9AAB-E6BB464D5960";
paths = (
{
closed = 1;
nodes = (
"0 0 LINE",
"452 0 LINE",
"452 521 LINE",
"0 521 LINE"
);
}
);
width = 452;
}
);
leftKerningGroup = ordmasculine;
rightKerningGroup = numbersign;
unicode = 00BA;
},
{
glyphname = guillemotright;
lastChange = "2018-02-17 16:44:12 +0000";
layers = (
{
layerId = "1FDD38BC-4CDE-4118-9AAB-E6BB464D5960";
paths = (
{
closed = 1;
nodes = (
"0 0 LINE",
"578 0 LINE",
"578 521 LINE",
"0 521 LINE"
);
}
);
width = 578;
}
);
leftKerningGroup = guillemotright;
rightKerningGroup = guillemotright;
unicode = 00BB;
},
{
glyphname = questiondown;
lastChange = "2018-02-17 16:44:12 +0000";
layers = (
{
layerId = "1FDD38BC-4CDE-4118-9AAB-E6BB464D5960";
paths = (
{
closed = 1;
nodes = (
"0 0 LINE",
"471 0 LINE",
"471 521 LINE",
"0 521 LINE"
);
}
);
width = 471;
}
);
rightKerningGroup = questiondown;
unicode = 00BF;
},
{
glyphname = AE;
lastChange = "2018-02-17 10:44:54 +0000";
layers = (
{
layerId = "1FDD38BC-4CDE-4118-9AAB-E6BB464D5960";
paths = (
{
closed = 1;
nodes = (
"0 0 LINE",
"960 0 LINE",
"960 521 LINE",
"0 521 LINE"
);
}
);
width = 960;
}
);
leftKerningGroup = AE;
rightKerningGroup = E;
unicode = 00C6;
},
{
glyphname = Eth;
lastChange = "2018-02-17 16:44:12 +0000";
layers = (
{
layerId = "1FDD38BC-4CDE-4118-9AAB-E6BB464D5960";
paths = (
{
closed = 1;
nodes = (
"0 0 LINE",
"722 0 LINE",
"722 521 LINE",
"0 521 LINE"
);
}
);
width = 722;
}
);
leftKerningGroup = B;
rightKerningGroup = D;
unicode = 00D0;
},
{
glyphname = multiply;
lastChange = "2018-02-17 16:44:12 +0000";
layers = (
{
layerId = "1FDD38BC-4CDE-4118-9AAB-E6BB464D5960";
paths = (
{
closed = 1;
nodes = (
"0 0 LINE",
"459 0 LINE",
"459 521 LINE",
"0 521 LINE"
);
}
);
width = 459;
}
);
rightKerningGroup = numbersign;
unicode = 00D7;
},
{
glyphname = Oslash;
lastChange = "2018-02-17 10:45:37 +0000";
layers = (
{
layerId = "1FDD38BC-4CDE-4118-9AAB-E6BB464D5960";
paths = (
{
closed = 1;
nodes = (
"0 0 LINE",
"750 0 LINE",
"750 521 LINE",
"0 521 LINE"
);
}
);
width = 750;
}
);
leftKerningGroup = C;
rightKerningGroup = O;
unicode = 00D8;
},
{
glyphname = germandbls;
lastChange = "2018-02-17 10:38:41 +0000";
layers = (
{
layerId = "1FDD38BC-4CDE-4118-9AAB-E6BB464D5960";
paths = (
{
closed = 1;
nodes = (
"0 0 LINE",
"551 0 LINE",
"551 521 LINE",
"0 521 LINE"
);
}
);
width = 551;
}
);
leftKerningGroup = b;
rightKerningGroup = germandbls;
unicode = 00DF;
},
{
glyphname = ae;
lastChange = "2018-02-17 10:39:07 +0000";
layers = (
{
layerId = "1FDD38BC-4CDE-4118-9AAB-E6BB464D5960";
paths = (
{
closed = 1;
nodes = (
"0 0 LINE",
"932 0 LINE",
"932 521 LINE",
"0 521 LINE"
);
}
);
width = 932;
}
);
leftKerningGroup = a;
rightKerningGroup = e;
unicode = 00E6;
},
{
glyphname = dotlessi;
lastChange = "2018-02-17 10:40:01 +0000";
layers = (
{
anchors = (
{
name = ogonek;
position = "{196, 10}";
},
{
name = top;
position = "{109, 521}";
}
);
layerId = "1FDD38BC-4CDE-4118-9AAB-E6BB464D5960";
paths = (
{
closed = 1;
nodes = (
"0 0 LINE",
"218 0 LINE",
"218 521 LINE",
"0 521 LINE"
);
}
);
width = 218;
}
);
leftKerningGroup = i;
rightKerningGroup = i;
unicode = 0131;
},
{
glyphname = eth;
lastChange = "2018-02-17 10:39:31 +0000";
layers = (
{
layerId = "1FDD38BC-4CDE-4118-9AAB-E6BB464D5960";
paths = (
{
closed = 1;
nodes = (
"0 0 LINE",
"602 0 LINE",
"602 521 LINE",
"0 521 LINE"
);
}
);
width = 602;
}
);
leftKerningGroup = eth;
rightKerningGroup = eth;
unicode = 00F0;
},
{
glyphname = divide;
lastChange = "2018-02-17 16:44:12 +0000";
layers = (
{
layerId = "1FDD38BC-4CDE-4118-9AAB-E6BB464D5960";
paths = (
{
closed = 1;
nodes = (
"0 0 LINE",
"539 0 LINE",
"539 521 LINE",
"0 521 LINE"
);
}
);
width = 539;
}
);
rightKerningGroup = numbersign;
unicode = 00F7;
},
{
glyphname = Dcroat;
lastChange = "2018-02-17 10:46:57 +0000";
layers = (
{
layerId = "1FDD38BC-4CDE-4118-9AAB-E6BB464D5960";
paths = (
{
closed = 1;
nodes = (
"0 0 LINE",
"720 0 LINE",
"720 521 LINE",
"0 521 LINE"
);
}
);
width = 720;
}
);
leftKerningGroup = B;
rightKerningGroup = D;
unicode = 0110;
},
{
glyphname = dcroat;
lastChange = "2018-02-17 16:44:12 +0000";
layers = (
{
layerId = "1FDD38BC-4CDE-4118-9AAB-E6BB464D5960";
paths = (
{
closed = 1;
nodes = (
"0 0 LINE",
"620 0 LINE",
"620 521 LINE",
"0 521 LINE"
);
}
);
width = 620;
}
);
leftKerningGroup = d;
rightKerningGroup = d;
unicode = 0111;
},
{
glyphname = Hbar;
lastChange = "2018-02-17 16:44:12 +0000";
layers = (
{
layerId = "1FDD38BC-4CDE-4118-9AAB-E6BB464D5960";
paths = (
{
closed = 1;
nodes = (
"0 0 LINE",
"750 0 LINE",
"750 521 LINE",
"0 521 LINE"
);
}
);
width = 750;
}
);
leftKerningGroup = B;
rightKerningGroup = H;
unicode = 0126;
},
{
glyphname = hbar;
lastChange = "2018-02-17 16:44:12 +0000";
layers = (
{
layerId = "1FDD38BC-4CDE-4118-9AAB-E6BB464D5960";
paths = (
{
closed = 1;
nodes = (
"0 0 LINE",
"585 0 LINE",
"585 521 LINE",
"0 521 LINE"
);
}
);
width = 585;
}
);
leftKerningGroup = b;
rightKerningGroup = h;
unicode = 0127;
},
{
glyphname = Itilde;
lastChange = "2018-02-17 16:44:12 +0000";
layers = (
{
layerId = "1FDD38BC-4CDE-4118-9AAB-E6BB464D5960";
paths = (
{
closed = 1;
nodes = (
"0 0 LINE",
"251 0 LINE",
"251 521 LINE",
"0 521 LINE"
);
}
);
width = 251;
}
);
leftKerningGroup = B;
rightKerningGroup = H;
unicode = 0128;
},
{
glyphname = itilde;
lastChange = "2018-02-17 16:44:12 +0000";
layers = (
{
layerId = "1FDD38BC-4CDE-4118-9AAB-E6BB464D5960";
paths = (
{
closed = 1;
nodes = (
"0 0 LINE",
"220 0 LINE",
"220 521 LINE",
"0 521 LINE"
);
}
);
width = 220;
}
);
leftKerningGroup = i;
rightKerningGroup = i;
unicode = 0129;
},
{
glyphname = Imacron;
lastChange = "2018-02-17 16:44:12 +0000";
layers = (
{
layerId = "1FDD38BC-4CDE-4118-9AAB-E6BB464D5960";
paths = (
{
closed = 1;
nodes = (
"0 0 LINE",
"250 0 LINE",
"250 521 LINE",
"0 521 LINE"
);
}
);
width = 250;
}
);
leftKerningGroup = B;
rightKerningGroup = H;
unicode = 012A;
},
{
glyphname = imacron;
lastChange = "2018-02-17 16:44:12 +0000";
layers = (
{
layerId = "1FDD38BC-4CDE-4118-9AAB-E6BB464D5960";
paths = (
{
closed = 1;
nodes = (
"0 0 LINE",
"220 0 LINE",
"220 521 LINE",
"0 521 LINE"
);
}
);
width = 220;
}
);
leftKerningGroup = i;
rightKerningGroup = i;
unicode = 012B;
},
{
glyphname = Iogonek;
lastChange = "2018-02-17 16:44:12 +0000";
layers = (
{
layerId = "1FDD38BC-4CDE-4118-9AAB-E6BB464D5960";
paths = (
{
closed = 1;
nodes = (
"0 0 LINE",
"250 0 LINE",
"250 521 LINE",
"0 521 LINE"
);
}
);
width = 250;
}
);
leftKerningGroup = B;
rightKerningGroup = H;
unicode = 012E;
},
{
glyphname = iogonek;
lastChange = "2018-02-17 16:44:12 +0000";
layers = (
{
components = (
{
name = dotaccent;
transform = "{1, 0, 0, 1, 30, 0}";
}
);
layerId = "1FDD38BC-4CDE-4118-9AAB-E6BB464D5960";
paths = (
{
closed = 1;
nodes = (
"0 0 LINE",
"220 0 LINE",
"220 521 LINE",
"0 521 LINE"
);
}
);
width = 220;
}
);
leftKerningGroup = i;
rightKerningGroup = i;
unicode = 012F;
},
{
glyphname = ij;
lastChange = "2018-02-17 16:44:12 +0000";
layers = (
{
components = (
{
name = dotaccent;
transform = "{1, 0, 0, 1, 30, 0}";
},
{
name = dotaccent;
transform = "{1, 0, 0, 1, 254, 0}";
}
);
layerId = "1FDD38BC-4CDE-4118-9AAB-E6BB464D5960";
paths = (
{
closed = 1;
nodes = (
"0 0 LINE",
"445 0 LINE",
"445 521 LINE",
"0 521 LINE"
);
}
);
width = 445;
}
);
leftKerningGroup = i;
rightKerningGroup = i;
unicode = 0133;
},
{
glyphname = jcircumflex;
lastChange = "2018-02-17 16:44:12 +0000";
layers = (
{
components = (
{
name = circumflex;
}
);
layerId = "1FDD38BC-4CDE-4118-9AAB-E6BB464D5960";
paths = (
{
closed = 1;
nodes = (
"56 0 LINE",
"276 0 LINE",
"276 521 LINE",
"56 521 LINE"
);
}
);
width = 276;
}
);
leftKerningGroup = i;
rightKerningGroup = i;
unicode = 0135;
},
{
glyphname = dotlessj;
lastChange = "2018-02-17 16:44:12 +0000";
layers = (
{
layerId = "1FDD38BC-4CDE-4118-9AAB-E6BB464D5960";
paths = (
{
closed = 1;
nodes = (
"0 0 LINE",
"220 0 LINE",
"220 521 LINE",
"0 521 LINE"
);
}
);
width = 220;
}
);
leftKerningGroup = i;
rightKerningGroup = i;
unicode = 0237;
},
{
glyphname = kgreenlandic;
lastChange = "2018-02-17 16:44:12 +0000";
layers = (
{
layerId = "1FDD38BC-4CDE-4118-9AAB-E6BB464D5960";
paths = (
{
closed = 1;
nodes = (
"0 0 LINE",
"532 0 LINE",
"532 521 LINE",
"0 521 LINE"
);
}
);
width = 532;
}
);
rightKerningGroup = numbersign;
unicode = 0138;
},
{
glyphname = Lacute;
lastChange = "2018-02-17 16:44:12 +0000";
layers = (
{
components = (
{
name = acute;
transform = "{1, 0, 0, 1, 82, 184}";
}
);
layerId = "1FDD38BC-4CDE-4118-9AAB-E6BB464D5960";
paths = (
{
closed = 1;
nodes = (
"0 0 LINE",
"585 0 LINE",
"585 521 LINE",
"0 521 LINE"
);
}
);
width = 585;
}
);
leftKerningGroup = B;
rightKerningGroup = L;
unicode = 0139;
},
{
glyphname = Ldot;
lastChange = "2018-02-17 16:44:12 +0000";
layers = (
{
components = (
{
name = L;
transform = "{1, 0, 0, 1, 1, 0}";
}
);
layerId = "1FDD38BC-4CDE-4118-9AAB-E6BB464D5960";
paths = (
{
closed = 1;
nodes = (
"425 354 OFFCURVE",
"447 376 OFFCURVE",
"447 404 CURVE SMOOTH",
"447 431 OFFCURVE",
"425 454 OFFCURVE",
"397 454 CURVE SMOOTH",
"369 454 OFFCURVE",
"347 431 OFFCURVE",
"347 404 CURVE SMOOTH",
"347 376 OFFCURVE",
"369 354 OFFCURVE",
"397 354 CURVE SMOOTH"
);
}
);
width = 585;
}
);
rightKerningGroup = L;
unicode = 013F;
},
{
glyphname = Lslash;
lastChange = "2018-02-17 16:44:12 +0000";
layers = (
{
layerId = "1FDD38BC-4CDE-4118-9AAB-E6BB464D5960";
paths = (
{
closed = 1;
nodes = (
"0 0 LINE",
"595 0 LINE",
"595 521 LINE",
"0 521 LINE"
);
}
);
width = 595;
}
);
leftKerningGroup = B;
rightKerningGroup = L;
unicode = 0141;
},
{
glyphname = lslash;
lastChange = "2018-02-17 16:44:12 +0000";
layers = (
{
components = (
{
name = l;
transform = "{1, 0, 0, 1, 19, 0}";
}
);
layerId = "1FDD38BC-4CDE-4118-9AAB-E6BB464D5960";
paths = (
{
closed = 1;
nodes = (
"0 325 LINE",
"27 289 LINE",
"276 485 LINE",
"248 521 LINE"
);
}
);
width = 276;
}
);
leftKerningGroup = l;
rightKerningGroup = l;
unicode = 0142;
},
{
glyphname = Nacute;
lastChange = "2018-02-17 16:44:12 +0000";
layers = (
{
layerId = "1FDD38BC-4CDE-4118-9AAB-E6BB464D5960";
paths = (
{
closed = 1;
nodes = (
"0 0 LINE",
"776 0 LINE",
"776 521 LINE",
"0 521 LINE"
);
}
);
width = 776;
}
);
leftKerningGroup = B;
rightKerningGroup = H;
unicode = 0143;
},
{
glyphname = nacute;
lastChange = "2018-02-17 16:44:12 +0000";
layers = (
{
components = (
{
name = acute;
transform = "{1, 0, 0, 1, 241, 0}";
}
);
layerId = "1FDD38BC-4CDE-4118-9AAB-E6BB464D5960";
paths = (
{
closed = 1;
nodes = (
"0 0 LINE",
"586 0 LINE",
"586 521 LINE",
"0 521 LINE"
);
}
);
width = 586;
}
);
leftKerningGroup = m;
rightKerningGroup = m;
unicode = 0144;
},
{
glyphname = Ncaron;
lastChange = "2018-02-17 16:44:12 +0000";
layers = (
{
components = (
{
name = caron;
transform = "{1, 0, 0, 1, 211, 186}";
}
);
layerId = "1FDD38BC-4CDE-4118-9AAB-E6BB464D5960";
paths = (
{
closed = 1;
nodes = (
"0 0 LINE",
"775 0 LINE",
"775 521 LINE",
"0 521 LINE"
);
}
);
width = 775;
}
);
leftKerningGroup = B;
rightKerningGroup = H;
unicode = 0147;
},
{
glyphname = ncaron;
lastChange = "2018-02-17 16:44:12 +0000";
layers = (
{
components = (
{
name = caron;
transform = "{1, 0, 0, 1, 137, 0}";
}
);
layerId = "1FDD38BC-4CDE-4118-9AAB-E6BB464D5960";
paths = (
{
closed = 1;
nodes = (
"0 0 LINE",
"585 0 LINE",
"585 521 LINE",
"0 521 LINE"
);
}
);
width = 585;
}
);
leftKerningGroup = m;
rightKerningGroup = m;
unicode = 0148;
},
{
glyphname = Eng;
lastChange = "2018-02-17 16:44:12 +0000";
layers = (
{
layerId = "1FDD38BC-4CDE-4118-9AAB-E6BB464D5960";
paths = (
{
closed = 1;
nodes = (
"0 0 LINE",
"768 0 LINE",
"768 521 LINE",
"0 521 LINE"
);
}
);
width = 768;
}
);
leftKerningGroup = B;
rightKerningGroup = H;
unicode = 014A;
},
{
glyphname = eng;
lastChange = "2018-02-17 16:44:12 +0000";
layers = (
{
layerId = "1FDD38BC-4CDE-4118-9AAB-E6BB464D5960";
paths = (
{
closed = 1;
nodes = (
"0 0 LINE",
"585 0 LINE",
"585 521 LINE",
"0 521 LINE"
);
}
);
width = 585;
}
);
leftKerningGroup = m;
rightKerningGroup = m;
unicode = 014B;
},
{
glyphname = Omacron;
lastChange = "2018-02-17 16:44:12 +0000";
layers = (
{
layerId = "1FDD38BC-4CDE-4118-9AAB-E6BB464D5960";
paths = (
{
closed = 1;
nodes = (
"0 0 LINE",
"753 0 LINE",
"753 521 LINE",
"0 521 LINE"
);
}
);
width = 753;
}
);
leftKerningGroup = C;
rightKerningGroup = O;
unicode = 014C;
},
{
glyphname = omacron;
lastChange = "2018-02-17 16:44:12 +0000";
layers = (
{
layerId = "1FDD38BC-4CDE-4118-9AAB-E6BB464D5960";
paths = (
{
closed = 1;
nodes = (
"0 0 LINE",
"598 0 LINE",
"598 521 LINE",
"0 521 LINE"
);
}
);
width = 598;
}
);
leftKerningGroup = c;
rightKerningGroup = o;
unicode = 014D;
},
{
glyphname = OE;
lastChange = "2018-02-17 16:44:12 +0000";
layers = (
{
layerId = "1FDD38BC-4CDE-4118-9AAB-E6BB464D5960";
paths = (
{
closed = 1;
nodes = (
"0 0 LINE",
"1156 0 LINE",
"1156 521 LINE",
"0 521 LINE"
);
}
);
width = 1156;
}
);
leftKerningGroup = C;
rightKerningGroup = E;
unicode = 0152;
},
{
glyphname = oe;
lastChange = "2018-02-17 16:44:12 +0000";
layers = (
{
layerId = "1FDD38BC-4CDE-4118-9AAB-E6BB464D5960";
paths = (
{
closed = 1;
nodes = (
"0 0 LINE",
"1036 0 LINE",
"1036 521 LINE",
"0 521 LINE"
);
}
);
width = 1036;
}
);
leftKerningGroup = c;
rightKerningGroup = e;
unicode = 0153;
},
{
glyphname = racute;
lastChange = "2018-02-17 16:44:12 +0000";
layers = (
{
components = (
{
name = acute;
transform = "{1, 0, 0, 1, 63, 0}";
}
);
layerId = "1FDD38BC-4CDE-4118-9AAB-E6BB464D5960";
paths = (
{
closed = 1;
nodes = (
"0 0 LINE",
"353 0 LINE",
"353 521 LINE",
"0 521 LINE"
);
}
);
width = 353;
}
);
leftKerningGroup = m;
rightKerningGroup = r;
unicode = 0155;
},
{
glyphname = Rcaron;
lastChange = "2018-02-17 16:44:12 +0000";
layers = (
{
components = (
{
name = caron;
transform = "{1, 0, 0, 1, 146, 187}";
}
);
layerId = "1FDD38BC-4CDE-4118-9AAB-E6BB464D5960";
paths = (
{
closed = 1;
nodes = (
"0 0 LINE",
"655 0 LINE",
"655 521 LINE",
"0 521 LINE"
);
}
);
width = 655;
}
);
leftKerningGroup = B;
rightKerningGroup = R;
unicode = 0158;
},
{
glyphname = rcaron;
lastChange = "2018-02-17 16:44:12 +0000";
layers = (
{
components = (
{
name = caron;
transform = "{1, 0, 0, 1, 22, 0}";
}
);
layerId = "1FDD38BC-4CDE-4118-9AAB-E6BB464D5960";
paths = (
{
closed = 1;
nodes = (
"0 0 LINE",
"354 0 LINE",
"354 521 LINE",
"0 521 LINE"
);
}
);
width = 354;
}
);
leftKerningGroup = m;
rightKerningGroup = r;
unicode = 0159;
},
{
glyphname = Sacute;
lastChange = "2018-02-17 16:44:12 +0000";
layers = (
{
components = (
{
name = acute;
transform = "{1, 0, 0, 1, 257, 185}";
}
);
layerId = "1FDD38BC-4CDE-4118-9AAB-E6BB464D5960";
paths = (
{
closed = 1;
nodes = (
"0 0 LINE",
"609 0 LINE",
"609 521 LINE",
"0 521 LINE"
);
}
);
width = 609;
}
);
leftKerningGroup = S;
rightKerningGroup = S;
unicode = 015A;
},
{
glyphname = sacute;
lastChange = "2018-02-17 16:44:12 +0000";
layers = (
{
components = (
{
name = acute;
transform = "{1, 0, 0, 1, 190, 0}";
}
);
layerId = "1FDD38BC-4CDE-4118-9AAB-E6BB464D5960";
paths = (
{
closed = 1;
nodes = (
"0 0 LINE",
"489 0 LINE",
"489 521 LINE",
"0 521 LINE"
);
}
);
width = 489;
}
);
leftKerningGroup = s;
rightKerningGroup = s;
unicode = 015B;
},
{
glyphname = uni015E;
lastChange = "2018-02-17 16:44:12 +0000";
layers = (
{
layerId = "1FDD38BC-4CDE-4118-9AAB-E6BB464D5960";
paths = (
{
closed = 1;
nodes = (
"0 0 LINE",
"610 0 LINE",
"610 521 LINE",
"0 521 LINE"
);
}
);
width = 610;
}
);
leftKerningGroup = S;
rightKerningGroup = S;
unicode = 015E;
},
{
glyphname = uni015F;
lastChange = "2018-02-17 16:44:12 +0000";
layers = (
{
layerId = "1FDD38BC-4CDE-4118-9AAB-E6BB464D5960";
paths = (
{
closed = 1;
nodes = (
"0 0 LINE",
"490 0 LINE",
"490 521 LINE",
"0 521 LINE"
);
}
);
width = 490;
}
);
leftKerningGroup = s;
rightKerningGroup = s;
unicode = 015F;
},
{
glyphname = scaron;
lastChange = "2018-02-17 16:44:12 +0000";
layers = (
{
components = (
{
name = caron;
transform = "{1, 0, 0, 1, 78, 0}";
}
);
layerId = "1FDD38BC-4CDE-4118-9AAB-E6BB464D5960";
paths = (
{
closed = 1;
nodes = (
"0 0 LINE",
"489 0 LINE",
"489 521 LINE",
"0 521 LINE"
);
}
);
width = 489;
}
);
leftKerningGroup = s;
rightKerningGroup = s;
unicode = 0161;
},
{
glyphname = uni0162;
lastChange = "2018-02-17 16:44:12 +0000";
layers = (
{
layerId = "1FDD38BC-4CDE-4118-9AAB-E6BB464D5960";
paths = (
{
closed = 1;
nodes = (
"0 0 LINE",
"611 0 LINE",
"611 521 LINE",
"0 521 LINE"
);
}
);
width = 611;
}
);
leftKerningGroup = T;
rightKerningGroup = T;
unicode = 0162;
},
{
glyphname = Tcaron;
lastChange = "2018-02-17 16:44:12 +0000";
layers = (
{
components = (
{
name = caron;
transform = "{1, 0, 0, 1, 134, 186}";
}
);
layerId = "1FDD38BC-4CDE-4118-9AAB-E6BB464D5960";
paths = (
{
closed = 1;
nodes = (
"0 0 LINE",
"612 0 LINE",
"612 521 LINE",
"0 521 LINE"
);
}
);
width = 612;
}
);
leftKerningGroup = T;
rightKerningGroup = T;
unicode = 0164;
},
{
glyphname = Tbar;
lastChange = "2018-02-17 16:44:12 +0000";
layers = (
{
components = (
{
name = T;
transform = "{1, 0, 0, 1, 1, 0}";
}
);
layerId = "1FDD38BC-4CDE-4118-9AAB-E6BB464D5960";
paths = (
{
closed = 1;
nodes = (
"85 367 LINE",
"546 367 LINE",
"546 413 LINE",
"85 413 LINE"
);
}
);
width = 677;
}
);
leftKerningGroup = T;
rightKerningGroup = T;
unicode = 0166;
},
{
glyphname = tbar;
lastChange = "2018-02-17 16:44:12 +0000";
layers = (
{
components = (
{
name = t;
transform = "{1, 0, 0, 1, 1, 0}";
}
);
layerId = "1FDD38BC-4CDE-4118-9AAB-E6BB464D5960";
paths = (
{
closed = 1;
nodes = (
"45 307 LINE",
"286 307 LINE",
"286 353 LINE",
"45 353 LINE"
);
}
);
width = 338;
}
);
leftKerningGroup = t;
rightKerningGroup = t;
unicode = 0167;
},
{
glyphname = Utilde;
lastChange = "2018-02-17 16:44:12 +0000";
layers = (
{
layerId = "1FDD38BC-4CDE-4118-9AAB-E6BB464D5960";
paths = (
{
closed = 1;
nodes = (
"0 0 LINE",
"757 0 LINE",
"757 521 LINE",
"0 521 LINE"
);
}
);
width = 757;
}
);
leftKerningGroup = U;
rightKerningGroup = U;
unicode = 0168;
},
{
glyphname = utilde;
lastChange = "2018-02-17 16:44:12 +0000";
layers = (
{
layerId = "1FDD38BC-4CDE-4118-9AAB-E6BB464D5960";
paths = (
{
closed = 1;
nodes = (
"0 0 LINE",
"596 0 LINE",
"596 521 LINE",
"0 521 LINE"
);
}
);
width = 596;
}
);
leftKerningGroup = u;
rightKerningGroup = u;
unicode = 0169;
},
{
glyphname = Uogonek;
lastChange = "2018-02-17 16:44:12 +0000";
layers = (
{
layerId = "1FDD38BC-4CDE-4118-9AAB-E6BB464D5960";
paths = (
{
closed = 1;
nodes = (
"0 0 LINE",
"758 0 LINE",
"758 521 LINE",
"0 521 LINE"
);
}
);
width = 758;
}
);
leftKerningGroup = U;
rightKerningGroup = U;
unicode = 0172;
},
{
glyphname = Zacute;
lastChange = "2018-02-17 16:44:12 +0000";
layers = (
{
components = (
{
name = acute;
transform = "{1, 0, 0, 1, 244, 186}";
}
);
layerId = "1FDD38BC-4CDE-4118-9AAB-E6BB464D5960";
paths = (
{
closed = 1;
nodes = (
"0 0 LINE",
"631 0 LINE",
"631 521 LINE",
"0 521 LINE"
);
}
);
width = 631;
}
);
leftKerningGroup = Z;
rightKerningGroup = Z;
unicode = 0179;
},
{
glyphname = Schwa;
lastChange = "2018-02-17 16:44:12 +0000";
layers = (
{
layerId = "1FDD38BC-4CDE-4118-9AAB-E6BB464D5960";
paths = (
{
closed = 1;
nodes = (
"0 0 LINE",
"739 0 LINE",
"739 521 LINE",
"0 521 LINE"
);
}
);
width = 739;
}
);
leftKerningGroup = Schwa;
rightKerningGroup = O;
unicode = 018F;
},
{
glyphname = florin;
lastChange = "2018-02-17 16:44:12 +0000";
layers = (
{
layerId = "1FDD38BC-4CDE-4118-9AAB-E6BB464D5960";
paths = (
{
closed = 1;
nodes = (
"0 0 LINE",
"528 0 LINE",
"528 521 LINE",
"0 521 LINE"
);
}
);
width = 528;
}
);
rightKerningGroup = numbersign;
unicode = 0192;
},
{
glyphname = Oogonek;
lastChange = "2018-02-17 16:44:12 +0000";
layers = (
{
layerId = "1FDD38BC-4CDE-4118-9AAB-E6BB464D5960";
paths = (
{
closed = 1;
nodes = (
"0 0 LINE",
"753 0 LINE",
"753 521 LINE",
"0 521 LINE"
);
}
);
width = 753;
}
);
rightKerningGroup = numbersign;
unicode = 01EA;
},
{
glyphname = oogonek;
lastChange = "2018-02-17 16:44:12 +0000";
layers = (
{
layerId = "1FDD38BC-4CDE-4118-9AAB-E6BB464D5960";
paths = (
{
closed = 1;
nodes = (
"0 0 LINE",
"597 0 LINE",
"597 521 LINE",
"0 521 LINE"
);
}
);
width = 597;
}
);
rightKerningGroup = numbersign;
unicode = 01EB;
},
{
glyphname = uni01F1;
lastChange = "2018-02-17 16:44:12 +0000";
layers = (
{
layerId = "1FDD38BC-4CDE-4118-9AAB-E6BB464D5960";
paths = (
{
closed = 1;
nodes = (
"0 0 LINE",
"1331 0 LINE",
"1331 521 LINE",
"0 521 LINE"
);
}
);
width = 1331;
}
);
rightKerningGroup = Z;
unicode = 01F1;
},
{
glyphname = uni01F2;
lastChange = "2018-02-17 16:44:12 +0000";
layers = (
{
layerId = "1FDD38BC-4CDE-4118-9AAB-E6BB464D5960";
paths = (
{
closed = 1;
nodes = (
"0 0 LINE",
"1208 0 LINE",
"1208 521 LINE",
"0 521 LINE"
);
}
);
width = 1208;
}
);
rightKerningGroup = z;
unicode = 01F2;
},
{
glyphname = Aringacute;
lastChange = "2018-02-17 16:44:12 +0000";
layers = (
{
layerId = "1FDD38BC-4CDE-4118-9AAB-E6BB464D5960";
paths = (
{
closed = 1;
nodes = (
"0 0 LINE",
"678 0 LINE",
"678 521 LINE",
"0 521 LINE"
);
}
);
width = 678;
}
);
leftKerningGroup = A;
rightKerningGroup = A;
unicode = 01FA;
},
{
glyphname = AEacute;
lastChange = "2018-02-17 16:44:12 +0000";
layers = (
{
components = (
{
name = acute;
transform = "{1, 0, 0, 1, 439, 186}";
}
);
layerId = "1FDD38BC-4CDE-4118-9AAB-E6BB464D5960";
paths = (
{
closed = 1;
nodes = (
"0 0 LINE",
"963 0 LINE",
"963 521 LINE",
"0 521 LINE"
);
}
);
width = 963;
}
);
leftKerningGroup = AE;
rightKerningGroup = E;
unicode = 01FC;
},
{
glyphname = aeacute;
lastChange = "2018-02-17 16:44:12 +0000";
layers = (
{
components = (
{
name = acute;
transform = "{1, 0, 0, 1, 411, 0}";
}
);
layerId = "1FDD38BC-4CDE-4118-9AAB-E6BB464D5960";
paths = (
{
closed = 1;
nodes = (
"0 0 LINE",
"934 0 LINE",
"934 521 LINE",
"0 521 LINE"
);
}
);
width = 934;
}
);
leftKerningGroup = a;
rightKerningGroup = e;
unicode = 01FD;
},
{
glyphname = Oslashacute;
lastChange = "2018-02-17 16:44:12 +0000";
layers = (
{
components = (
{
name = acute;
transform = "{1, 0, 0, 1, 329, 186}";
}
);
layerId = "1FDD38BC-4CDE-4118-9AAB-E6BB464D5960";
paths = (
{
closed = 1;
nodes = (
"0 0 LINE",
"753 0 LINE",
"753 521 LINE",
"0 521 LINE"
);
}
);
width = 753;
}
);
leftKerningGroup = C;
rightKerningGroup = O;
unicode = 01FE;
},
{
glyphname = oslashacute;
lastChange = "2018-02-17 16:44:12 +0000";
layers = (
{
components = (
{
name = acute;
transform = "{1, 0, 0, 1, 246, 0}";
}
);
layerId = "1FDD38BC-4CDE-4118-9AAB-E6BB464D5960";
paths = (
{
closed = 1;
nodes = (
"0 0 LINE",
"597 0 LINE",
"597 521 LINE",
"0 521 LINE"
);
}
);
width = 597;
}
);
leftKerningGroup = c;
rightKerningGroup = o;
unicode = 01FF;
},
{
glyphname = adblgrave;
lastChange = "2018-02-17 16:44:12 +0000";
layers = (
{
layerId = "1FDD38BC-4CDE-4118-9AAB-E6BB464D5960";
paths = (
{
closed = 1;
nodes = (
"0 0 LINE",
"547 0 LINE",
"547 521 LINE",
"0 521 LINE"
);
}
);
width = 547;
}
);
rightKerningGroup = numbersign;
unicode = 0201;
},
{
glyphname = edblgrave;
lastChange = "2018-02-17 16:44:12 +0000";
layers = (
{
layerId = "1FDD38BC-4CDE-4118-9AAB-E6BB464D5960";
paths = (
{
closed = 1;
nodes = (
"0 0 LINE",
"589 0 LINE",
"589 521 LINE",
"0 521 LINE"
);
}
);
width = 589;
}
);
rightKerningGroup = numbersign;
unicode = 0205;
},
{
glyphname = Idblgrave;
lastChange = "2018-02-17 16:44:12 +0000";
layers = (
{
layerId = "1FDD38BC-4CDE-4118-9AAB-E6BB464D5960";
paths = (
{
closed = 1;
nodes = (
"0 0 LINE",
"250 0 LINE",
"250 521 LINE",
"0 521 LINE"
);
}
);
width = 250;
}
);
rightKerningGroup = numbersign;
unicode = 0208;
},
{
glyphname = idblgrave;
lastChange = "2018-02-17 16:44:12 +0000";
layers = (
{
layerId = "1FDD38BC-4CDE-4118-9AAB-E6BB464D5960";
paths = (
{
closed = 1;
nodes = (
"0 0 LINE",
"220 0 LINE",
"220 521 LINE",
"0 521 LINE"
);
}
);
width = 220;
}
);
rightKerningGroup = numbersign;
unicode = 0209;
},
{
glyphname = Odblgrave;
lastChange = "2018-02-17 16:44:12 +0000";
layers = (
{
layerId = "1FDD38BC-4CDE-4118-9AAB-E6BB464D5960";
paths = (
{
closed = 1;
nodes = (
"0 0 LINE",
"753 0 LINE",
"753 521 LINE",
"0 521 LINE"
);
}
);
width = 753;
}
);
rightKerningGroup = numbersign;
unicode = 020C;
},
{
glyphname = odblgrave;
lastChange = "2018-02-17 16:44:12 +0000";
layers = (
{
layerId = "1FDD38BC-4CDE-4118-9AAB-E6BB464D5960";
paths = (
{
closed = 1;
nodes = (
"0 0 LINE",
"597 0 LINE",
"597 521 LINE",
"0 521 LINE"
);
}
);
width = 597;
}
);
rightKerningGroup = numbersign;
unicode = 020D;
},
{
glyphname = Rdblgrave;
lastChange = "2018-02-17 16:44:12 +0000";
layers = (
{
layerId = "1FDD38BC-4CDE-4118-9AAB-E6BB464D5960";
paths = (
{
closed = 1;
nodes = (
"0 0 LINE",
"655 0 LINE",
"655 521 LINE",
"0 521 LINE"
);
}
);
width = 655;
}
);
rightKerningGroup = numbersign;
unicode = 0210;
},
{
glyphname = rdblgrave;
lastChange = "2018-02-17 16:44:12 +0000";
layers = (
{
layerId = "1FDD38BC-4CDE-4118-9AAB-E6BB464D5960";
paths = (
{
closed = 1;
nodes = (
"0 0 LINE",
"353 0 LINE",
"353 521 LINE",
"0 521 LINE"
);
}
);
width = 353;
}
);
rightKerningGroup = numbersign;
unicode = 0211;
},
{
glyphname = Udblgrave;
lastChange = "2018-02-17 16:44:12 +0000";
layers = (
{
layerId = "1FDD38BC-4CDE-4118-9AAB-E6BB464D5960";
paths = (
{
closed = 1;
nodes = (
"0 0 LINE",
"757 0 LINE",
"757 521 LINE",
"0 521 LINE"
);
}
);
width = 757;
}
);
rightKerningGroup = numbersign;
unicode = 0214;
},
{
glyphname = uni0218;
lastChange = "2018-02-17 16:44:12 +0000";
layers = (
{
components = (
{
name = commaaccent;
transform = "{1, 0, 0, 1, 227, 0}";
}
);
layerId = "1FDD38BC-4CDE-4118-9AAB-E6BB464D5960";
paths = (
{
closed = 1;
nodes = (
"0 0 LINE",
"609 0 LINE",
"609 521 LINE",
"0 521 LINE"
);
}
);
width = 609;
}
);
leftKerningGroup = S;
rightKerningGroup = S;
unicode = 0218;
},
{
glyphname = uni0219;
lastChange = "2018-02-17 16:44:12 +0000";
layers = (
{
components = (
{
name = commaaccent;
transform = "{1, 0, 0, 1, 157, 0}";
}
);
layerId = "1FDD38BC-4CDE-4118-9AAB-E6BB464D5960";
paths = (
{
closed = 1;
nodes = (
"0 0 LINE",
"489 0 LINE",
"489 521 LINE",
"0 521 LINE"
);
}
);
width = 489;
}
);
leftKerningGroup = s;
rightKerningGroup = s;
unicode = 0219;
},
{
glyphname = uni021A;
lastChange = "2018-02-17 16:44:12 +0000";
layers = (
{
components = (
{
name = commaaccent;
transform = "{1, 0, 0, 1, 212, 0}";
}
);
layerId = "1FDD38BC-4CDE-4118-9AAB-E6BB464D5960";
paths = (
{
closed = 1;
nodes = (
"0 0 LINE",
"612 0 LINE",
"612 521 LINE",
"0 521 LINE"
);
}
);
width = 612;
}
);
leftKerningGroup = T;
rightKerningGroup = T;
unicode = 021A;
},
{
glyphname = uni021B;
lastChange = "2018-02-17 16:44:12 +0000";
layers = (
{
components = (
{
name = commaaccent;
transform = "{1, 0, 0, 1, 109, 0}";
}
);
layerId = "1FDD38BC-4CDE-4118-9AAB-E6BB464D5960";
paths = (
{
closed = 1;
nodes = (
"0 0 LINE",
"337 0 LINE",
"337 521 LINE",
"0 521 LINE"
);
}
);
width = 337;
}
);
leftKerningGroup = t;
rightKerningGroup = t;
unicode = 021B;
},
{
glyphname = schwa;
lastChange = "2018-02-17 16:44:12 +0000";
layers = (
{
layerId = "1FDD38BC-4CDE-4118-9AAB-E6BB464D5960";
paths = (
{
closed = 1;
nodes = (
"0 0 LINE",
"589 0 LINE",
"589 521 LINE",
"0 521 LINE"
);
}
);
width = 589;
}
);
leftKerningGroup = schwa;
rightKerningGroup = o;
unicode = 0259;
},
{
glyphname = uni0394;
lastChange = "2018-02-17 16:44:12 +0000";
layers = (
{
layerId = "1FDD38BC-4CDE-4118-9AAB-E6BB464D5960";
paths = (
{
closed = 1;
nodes = (
"0 0 LINE",
"649 0 LINE",
"649 521 LINE",
"0 521 LINE"
);
}
);
width = 649;
}
);
leftKerningGroup = uni0394;
rightKerningGroup = uni0394;
unicode = 0394;
},
{
glyphname = uni03A9;
lastChange = "2018-02-17 16:44:12 +0000";
layers = (
{
layerId = "1FDD38BC-4CDE-4118-9AAB-E6BB464D5960";
paths = (
{
closed = 1;
nodes = (
"0 0 LINE",
"765 0 LINE",
"765 521 LINE",
"0 521 LINE"
);
}
);
width = 765;
}
);
leftKerningGroup = uni03A9;
rightKerningGroup = uni03A9;
unicode = 03A9;
},
{
glyphname = uni03BC;
lastChange = "2018-02-17 16:44:12 +0000";
layers = (
{
layerId = "1FDD38BC-4CDE-4118-9AAB-E6BB464D5960";
paths = (
{
closed = 1;
nodes = (
"0 0 LINE",
"602 0 LINE",
"602 521 LINE",
"0 521 LINE"
);
}
);
width = 602;
}
);
rightKerningGroup = numbersign;
unicode = 03BC;
},
{
glyphname = pi;
lastChange = "2018-02-17 16:44:12 +0000";
layers = (
{
layerId = "1FDD38BC-4CDE-4118-9AAB-E6BB464D5960";
paths = (
{
closed = 1;
nodes = (
"0 0 LINE",
"591 0 LINE",
"591 521 LINE",
"0 521 LINE"
);
}
);
width = 591;
}
);
leftKerningGroup = pi;
rightKerningGroup = pi;
unicode = 03C0;
},
{
glyphname = Hdotbelow;
lastChange = "2018-02-17 16:44:12 +0000";
layers = (
{
components = (
{
name = dotbelow;
transform = "{1, 0, 0, 1, 294, 0}";
}
);
layerId = "1FDD38BC-4CDE-4118-9AAB-E6BB464D5960";
paths = (
{
closed = 1;
nodes = (
"0 0 LINE",
"740 0 LINE",
"740 521 LINE",
"0 521 LINE"
);
}
);
width = 740;
}
);
leftKerningGroup = B;
rightKerningGroup = H;
unicode = 1E24;
},
{
glyphname = hdotbelow;
lastChange = "2018-02-17 16:44:12 +0000";
layers = (
{
components = (
{
name = dotbelow;
transform = "{1, 0, 0, 1, 220, 0}";
}
);
layerId = "1FDD38BC-4CDE-4118-9AAB-E6BB464D5960";
paths = (
{
closed = 1;
nodes = (
"0 0 LINE",
"585 0 LINE",
"585 521 LINE",
"0 521 LINE"
);
}
);
width = 585;
}
);
leftKerningGroup = b;
rightKerningGroup = h;
unicode = 1E25;
},
{
glyphname = Ndotaccent;
lastChange = "2018-02-17 16:44:12 +0000";
layers = (
{
components = (
{
name = dotaccent;
transform = "{1, 0, 0, 1, 310, 186}";
}
);
layerId = "1FDD38BC-4CDE-4118-9AAB-E6BB464D5960";
paths = (
{
closed = 1;
nodes = (
"0 0 LINE",
"774 0 LINE",
"774 521 LINE",
"0 521 LINE"
);
}
);
width = 774;
}
);
leftKerningGroup = B;
rightKerningGroup = H;
unicode = 1E44;
},
{
glyphname = ndotaccent;
lastChange = "2018-02-17 16:44:12 +0000";
layers = (
{
components = (
{
name = dotaccent;
transform = "{1, 0, 0, 1, 211, 0}";
}
);
layerId = "1FDD38BC-4CDE-4118-9AAB-E6BB464D5960";
paths = (
{
closed = 1;
nodes = (
"0 0 LINE",
"585 0 LINE",
"585 521 LINE",
"0 521 LINE"
);
}
);
width = 585;
}
);
leftKerningGroup = m;
rightKerningGroup = m;
unicode = 1E45;
},
{
glyphname = Rdotbelow;
lastChange = "2018-02-17 16:44:12 +0000";
layers = (
{
components = (
{
name = dotbelow;
transform = "{1, 0, 0, 1, 245, 0}";
}
);
layerId = "1FDD38BC-4CDE-4118-9AAB-E6BB464D5960";
paths = (
{
closed = 1;
nodes = (
"0 0 LINE",
"655 0 LINE",
"655 521 LINE",
"0 521 LINE"
);
}
);
width = 655;
}
);
leftKerningGroup = B;
rightKerningGroup = R;
unicode = 1E5A;
},
{
glyphname = rdotbelow;
lastChange = "2018-02-17 16:44:12 +0000";
layers = (
{
components = (
{
name = dotbelow;
transform = "{1, 0, 0, 1, 32, 0}";
}
);
layerId = "1FDD38BC-4CDE-4118-9AAB-E6BB464D5960";
paths = (
{
closed = 1;
nodes = (
"0 0 LINE",
"353 0 LINE",
"353 521 LINE",
"0 521 LINE"
);
}
);
width = 353;
}
);
leftKerningGroup = m;
rightKerningGroup = r;
unicode = 1E5B;
},
{
glyphname = Sdotbelow;
lastChange = "2018-02-17 16:44:12 +0000";
layers = (
{
components = (
{
name = dotbelow;
transform = "{1, 0, 0, 1, 245, 0}";
}
);
layerId = "1FDD38BC-4CDE-4118-9AAB-E6BB464D5960";
paths = (
{
closed = 1;
nodes = (
"0 0 LINE",
"609 0 LINE",
"609 521 LINE",
"0 521 LINE"
);
}
);
width = 609;
}
);
leftKerningGroup = S;
rightKerningGroup = S;
unicode = 1E62;
},
{
glyphname = sdotbelow;
lastChange = "2018-02-17 16:44:12 +0000";
layers = (
{
components = (
{
name = dotbelow;
transform = "{1, 0, 0, 1, 173, 0}";
}
);
layerId = "1FDD38BC-4CDE-4118-9AAB-E6BB464D5960";
paths = (
{
closed = 1;
nodes = (
"0 0 LINE",
"489 0 LINE",
"489 521 LINE",
"0 521 LINE"
);
}
);
width = 489;
}
);
leftKerningGroup = s;
rightKerningGroup = s;
unicode = 1E63;
},
{
glyphname = Tdotbelow;
lastChange = "2018-02-17 16:44:12 +0000";
layers = (
{
components = (
{
name = dotbelow;
transform = "{1, 0, 0, 1, 232, 0}";
}
);
layerId = "1FDD38BC-4CDE-4118-9AAB-E6BB464D5960";
paths = (
{
closed = 1;
nodes = (
"0 0 LINE",
"612 0 LINE",
"612 521 LINE",
"0 521 LINE"
);
}
);
width = 612;
}
);
leftKerningGroup = T;
rightKerningGroup = T;
unicode = 1E6C;
},
{
glyphname = Edotbelow;
lastChange = "2018-02-17 16:44:12 +0000";
layers = (
{
components = (
{
name = dotbelow;
transform = "{1, 0, 0, 1, 245, 0}";
}
);
layerId = "1FDD38BC-4CDE-4118-9AAB-E6BB464D5960";
paths = (
{
closed = 1;
nodes = (
"0 0 LINE",
"611 0 LINE",
"611 521 LINE",
"0 521 LINE"
);
}
);
width = 611;
}
);
leftKerningGroup = B;
rightKerningGroup = E;
unicode = 1EB8;
},
{
glyphname = edotbelow;
lastChange = "2018-02-17 16:44:12 +0000";
layers = (
{
components = (
{
name = dotbelow;
transform = "{1, 0, 0, 1, 223, 0}";
}
);
layerId = "1FDD38BC-4CDE-4118-9AAB-E6BB464D5960";
paths = (
{
closed = 1;
nodes = (
"0 0 LINE",
"589 0 LINE",
"589 521 LINE",
"0 521 LINE"
);
}
);
width = 589;
}
);
leftKerningGroup = c;
rightKerningGroup = e;
unicode = 1EB9;
},
{
glyphname = Etilde;
lastChange = "2018-02-17 16:44:12 +0000";
layers = (
{
layerId = "1FDD38BC-4CDE-4118-9AAB-E6BB464D5960";
paths = (
{
closed = 1;
nodes = (
"0 0 LINE",
"611 0 LINE",
"611 521 LINE",
"0 521 LINE"
);
}
);
width = 611;
}
);
leftKerningGroup = B;
rightKerningGroup = E;
unicode = 1EBC;
},
{
glyphname = etilde;
lastChange = "2018-02-17 16:44:12 +0000";
layers = (
{
layerId = "1FDD38BC-4CDE-4118-9AAB-E6BB464D5960";
paths = (
{
closed = 1;
nodes = (
"0 0 LINE",
"589 0 LINE",
"589 521 LINE",
"0 521 LINE"
);
}
);
width = 589;
}
);
leftKerningGroup = c;
rightKerningGroup = e;
unicode = 1EBD;
},
{
glyphname = Odotbelow;
lastChange = "2018-02-17 16:44:12 +0000";
layers = (
{
components = (
{
name = dotbelow;
transform = "{1, 0, 0, 1, 298, 0}";
}
);
layerId = "1FDD38BC-4CDE-4118-9AAB-E6BB464D5960";
paths = (
{
closed = 1;
nodes = (
"0 0 LINE",
"753 0 LINE",
"753 521 LINE",
"0 521 LINE"
);
}
);
width = 753;
}
);
leftKerningGroup = C;
rightKerningGroup = O;
unicode = 1ECC;
},
{
glyphname = odotbelow;
lastChange = "2018-02-17 16:44:12 +0000";
layers = (
{
components = (
{
name = dotbelow;
transform = "{1, 0, 0, 1, 221, 0}";
}
);
layerId = "1FDD38BC-4CDE-4118-9AAB-E6BB464D5960";
paths = (
{
closed = 1;
nodes = (
"0 0 LINE",
"597 0 LINE",
"597 521 LINE",
"0 521 LINE"
);
}
);
width = 597;
}
);
leftKerningGroup = c;
rightKerningGroup = o;
unicode = 1ECD;
},
{
glyphname = Udotbelow;
lastChange = "2018-02-17 16:44:12 +0000";
layers = (
{
components = (
{
name = dotbelow;
transform = "{1, 0, 0, 1, 304, 0}";
}
);
layerId = "1FDD38BC-4CDE-4118-9AAB-E6BB464D5960";
paths = (
{
closed = 1;
nodes = (
"0 0 LINE",
"757 0 LINE",
"757 521 LINE",
"0 521 LINE"
);
}
);
width = 757;
}
);
leftKerningGroup = U;
rightKerningGroup = U;
unicode = 1EE4;
},
{
glyphname = Ytilde;
lastChange = "2018-02-17 16:44:12 +0000";
layers = (
{
layerId = "1FDD38BC-4CDE-4118-9AAB-E6BB464D5960";
paths = (
{
closed = 1;
nodes = (
"0 0 LINE",
"653 0 LINE",
"653 521 LINE",
"0 521 LINE"
);
}
);
width = 653;
}
);
leftKerningGroup = Y;
rightKerningGroup = Y;
unicode = 1EF8;
},
{
glyphname = endash;
lastChange = "2018-02-17 16:44:12 +0000";
layers = (
{
layerId = "1FDD38BC-4CDE-4118-9AAB-E6BB464D5960";
paths = (
{
closed = 1;
nodes = (
"0 0 LINE",
"572 0 LINE",
"572 521 LINE",
"0 521 LINE"
);
}
);
width = 572;
}
);
leftKerningGroup = hyphen;
rightKerningGroup = hyphen;
unicode = 2013;
},
{
glyphname = emdash;
lastChange = "2018-02-17 16:44:12 +0000";
layers = (
{
layerId = "1FDD38BC-4CDE-4118-9AAB-E6BB464D5960";
paths = (
{
closed = 1;
nodes = (
"0 0 LINE",
"903 0 LINE",
"903 521 LINE",
"0 521 LINE"
);
}
);
width = 903;
}
);
leftKerningGroup = hyphen;
rightKerningGroup = hyphen;
unicode = 2014;
},
{
glyphname = quotesinglbase;
lastChange = "2018-02-17 16:44:12 +0000";
layers = (
{
layerId = "1FDD38BC-4CDE-4118-9AAB-E6BB464D5960";
paths = (
{
closed = 1;
nodes = (
"0 0 LINE",
"258 0 LINE",
"258 521 LINE",
"0 521 LINE"
);
}
);
width = 258;
}
);
leftKerningGroup = comma;
rightKerningGroup = comma;
unicode = 201A;
},
{
glyphname = quotedblleft;
lastChange = "2018-02-17 16:44:12 +0000";
layers = (
{
layerId = "1FDD38BC-4CDE-4118-9AAB-E6BB464D5960";
paths = (
{
closed = 1;
nodes = (
"0 0 LINE",
"382 0 LINE",
"382 521 LINE",
"0 521 LINE"
);
}
);
width = 382;
}
);
leftKerningGroup = quoteleft;
rightKerningGroup = quoteleft;
unicode = 201C;
},
{
glyphname = quotedblright;
lastChange = "2018-02-17 16:44:12 +0000";
layers = (
{
layerId = "1FDD38BC-4CDE-4118-9AAB-E6BB464D5960";
paths = (
{
closed = 1;
nodes = (
"0 0 LINE",
"382 0 LINE",
"382 521 LINE",
"0 521 LINE"
);
}
);
width = 382;
}
);
leftKerningGroup = quoteright;
rightKerningGroup = quoteright;
unicode = 201D;
},
{
glyphname = quotedblbase;
lastChange = "2018-02-17 16:44:12 +0000";
layers = (
{
layerId = "1FDD38BC-4CDE-4118-9AAB-E6BB464D5960";
paths = (
{
closed = 1;
nodes = (
"0 0 LINE",
"382 0 LINE",
"382 521 LINE",
"0 521 LINE"
);
}
);
width = 382;
}
);
leftKerningGroup = comma;
rightKerningGroup = comma;
unicode = 201E;
},
{
glyphname = dagger;
lastChange = "2018-02-17 16:44:12 +0000";
layers = (
{
layerId = "1FDD38BC-4CDE-4118-9AAB-E6BB464D5960";
paths = (
{
closed = 1;
nodes = (
"0 0 LINE",
"408 0 LINE",
"408 521 LINE",
"0 521 LINE"
);
}
);
width = 408;
}
);
rightKerningGroup = numbersign;
unicode = 2020;
},
{
glyphname = daggerdbl;
lastChange = "2018-02-17 16:44:12 +0000";
layers = (
{
layerId = "1FDD38BC-4CDE-4118-9AAB-E6BB464D5960";
paths = (
{
closed = 1;
nodes = (
"0 0 LINE",
"412 0 LINE",
"412 521 LINE",
"0 521 LINE"
);
}
);
width = 412;
}
);
rightKerningGroup = numbersign;
unicode = 2021;
},
{
glyphname = bullet;
lastChange = "2018-02-17 16:44:12 +0000";
layers = (
{
layerId = "1FDD38BC-4CDE-4118-9AAB-E6BB464D5960";
paths = (
{
closed = 1;
nodes = (
"0 0 LINE",
"353 0 LINE",
"353 521 LINE",
"0 521 LINE"
);
}
);
width = 353;
}
);
rightKerningGroup = numbersign;
unicode = 2022;
},
{
glyphname = ellipsis;
lastChange = "2018-02-17 16:44:12 +0000";
layers = (
{
layerId = "1FDD38BC-4CDE-4118-9AAB-E6BB464D5960";
paths = (
{
closed = 1;
nodes = (
"0 0 LINE",
"530 0 LINE",
"530 521 LINE",
"0 521 LINE"
);
}
);
width = 530;
}
);
leftKerningGroup = comma;
rightKerningGroup = numbersign;
unicode = 2026;
},
{
glyphname = perthousand;
lastChange = "2018-02-17 16:44:12 +0000";
layers = (
{
layerId = "1FDD38BC-4CDE-4118-9AAB-E6BB464D5960";
paths = (
{
closed = 1;
nodes = (
"0 0 LINE",
"1068 0 LINE",
"1068 521 LINE",
"0 521 LINE"
);
}
);
width = 1068;
}
);
rightKerningGroup = numbersign;
unicode = 2030;
},
{
glyphname = guilsinglleft;
lastChange = "2018-02-17 16:44:12 +0000";
layers = (
{
layerId = "1FDD38BC-4CDE-4118-9AAB-E6BB464D5960";
paths = (
{
closed = 1;
nodes = (
"0 0 LINE",
"354 0 LINE",
"354 521 LINE",
"0 521 LINE"
);
}
);
width = 354;
}
);
leftKerningGroup = guillemotleft;
rightKerningGroup = guillemotleft;
unicode = 2039;
},
{
glyphname = guilsinglright;
lastChange = "2018-02-17 16:44:12 +0000";
layers = (
{
layerId = "1FDD38BC-4CDE-4118-9AAB-E6BB464D5960";
paths = (
{
closed = 1;
nodes = (
"0 0 LINE",
"354 0 LINE",
"354 521 LINE",
"0 521 LINE"
);
}
);
width = 354;
}
);
leftKerningGroup = guillemotright;
rightKerningGroup = guillemotright;
unicode = 203A;
},
{
glyphname = colonmonetary;
lastChange = "2018-02-17 16:44:12 +0000";
layers = (
{
layerId = "1FDD38BC-4CDE-4118-9AAB-E6BB464D5960";
paths = (
{
closed = 1;
nodes = (
"0 0 LINE",
"553 0 LINE",
"553 521 LINE",
"0 521 LINE"
);
}
);
width = 553;
}
);
rightKerningGroup = numbersign;
unicode = 20A1;
},
{
glyphname = franc;
lastChange = "2018-02-17 16:44:12 +0000";
layers = (
{
layerId = "1FDD38BC-4CDE-4118-9AAB-E6BB464D5960";
paths = (
{
closed = 1;
nodes = (
"0 0 LINE",
"614 0 LINE",
"614 521 LINE",
"0 521 LINE"
);
}
);
width = 614;
}
);
rightKerningGroup = numbersign;
unicode = 20A3;
},
{
glyphname = lira;
lastChange = "2018-02-17 16:44:12 +0000";
layers = (
{
layerId = "1FDD38BC-4CDE-4118-9AAB-E6BB464D5960";
paths = (
{
closed = 1;
nodes = (
"0 0 LINE",
"490 0 LINE",
"490 521 LINE",
"0 521 LINE"
);
}
);
width = 490;
}
);
rightKerningGroup = numbersign;
unicode = 20A4;
},
{
glyphname = uni20A6;
lastChange = "2018-02-17 16:44:12 +0000";
layers = (
{
layerId = "1FDD38BC-4CDE-4118-9AAB-E6BB464D5960";
paths = (
{
closed = 1;
nodes = (
"0 0 LINE",
"845 0 LINE",
"845 521 LINE",
"0 521 LINE"
);
}
);
width = 845;
}
);
rightKerningGroup = numbersign;
unicode = 20A6;
},
{
glyphname = uni20A9;
lastChange = "2018-02-17 16:44:12 +0000";
layers = (
{
layerId = "1FDD38BC-4CDE-4118-9AAB-E6BB464D5960";
paths = (
{
closed = 1;
nodes = (
"0 0 LINE",
"1120 0 LINE",
"1120 521 LINE",
"0 521 LINE"
);
}
);
width = 1120;
}
);
rightKerningGroup = numbersign;
unicode = 20A9;
},
{
glyphname = Euro;
lastChange = "2018-02-17 16:44:12 +0000";
layers = (
{
layerId = "1FDD38BC-4CDE-4118-9AAB-E6BB464D5960";
paths = (
{
closed = 1;
nodes = (
"0 0 LINE",
"803 0 LINE",
"803 521 LINE",
"0 521 LINE"
);
}
);
width = 803;
}
);
rightKerningGroup = numbersign;
unicode = 20AC;
},
{
glyphname = uni20B9;
lastChange = "2018-02-17 16:44:12 +0000";
layers = (
{
layerId = "1FDD38BC-4CDE-4118-9AAB-E6BB464D5960";
paths = (
{
closed = 1;
nodes = (
"0 0 LINE",
"475 0 LINE",
"475 521 LINE",
"0 521 LINE"
);
}
);
width = 475;
}
);
rightKerningGroup = numbersign;
unicode = 20B9;
},
{
glyphname = uni2113;
lastChange = "2018-02-17 16:44:12 +0000";
layers = (
{
layerId = "1FDD38BC-4CDE-4118-9AAB-E6BB464D5960";
paths = (
{
closed = 1;
nodes = (
"0 0 LINE",
"311 0 LINE",
"311 521 LINE",
"0 521 LINE"
);
}
);
width = 311;
}
);
rightKerningGroup = numbersign;
unicode = 2113;
},
{
glyphname = afii61352;
lastChange = "2018-02-17 16:44:12 +0000";
layers = (
{
layerId = "1FDD38BC-4CDE-4118-9AAB-E6BB464D5960";
paths = (
{
closed = 1;
nodes = (
"0 0 LINE",
"1142 0 LINE",
"1142 521 LINE",
"0 521 LINE"
);
}
);
width = 1142;
}
);
rightKerningGroup = numbersign;
unicode = 2116;
},
{
glyphname = Omega;
lastChange = "2018-02-17 16:44:12 +0000";
layers = (
{
layerId = "1FDD38BC-4CDE-4118-9AAB-E6BB464D5960";
paths = (
{
closed = 1;
nodes = (
"0 0 LINE",
"765 0 LINE",
"765 521 LINE",
"0 521 LINE"
);
}
);
width = 765;
}
);
leftKerningGroup = uni03A9;
rightKerningGroup = uni03A9;
unicode = 2126;
},
{
glyphname = estimated;
lastChange = "2018-02-17 16:44:12 +0000";
layers = (
{
layerId = "1FDD38BC-4CDE-4118-9AAB-E6BB464D5960";
paths = (
{
closed = 1;
nodes = (
"0 0 LINE",
"605 0 LINE",
"605 521 LINE",
"0 521 LINE"
);
}
);
width = 605;
}
);
rightKerningGroup = numbersign;
unicode = 212E;
},
{
glyphname = partialdiff;
lastChange = "2018-02-17 16:44:12 +0000";
layers = (
{
layerId = "1FDD38BC-4CDE-4118-9AAB-E6BB464D5960";
paths = (
{
closed = 1;
nodes = (
"0 0 LINE",
"568 0 LINE",
"568 521 LINE",
"0 521 LINE"
);
}
);
width = 568;
}
);
rightKerningGroup = numbersign;
unicode = 2202;
},
{
glyphname = Delta;
lastChange = "2018-02-17 16:44:12 +0000";
layers = (
{
layerId = "1FDD38BC-4CDE-4118-9AAB-E6BB464D5960";
paths = (
{
closed = 1;
nodes = (
"0 0 LINE",
"616 0 LINE",
"616 521 LINE",
"0 521 LINE"
);
}
);
width = 616;
}
);
rightKerningGroup = numbersign;
unicode = 2206;
},
{
glyphname = product;
lastChange = "2018-02-17 16:44:12 +0000";
layers = (
{
layerId = "1FDD38BC-4CDE-4118-9AAB-E6BB464D5960";
paths = (
{
closed = 1;
nodes = (
"0 0 LINE",
"693 0 LINE",
"693 521 LINE",
"0 521 LINE"
);
}
);
width = 693;
}
);
rightKerningGroup = numbersign;
unicode = 220F;
},
{
glyphname = summation;
lastChange = "2018-02-17 16:44:12 +0000";
layers = (
{
layerId = "1FDD38BC-4CDE-4118-9AAB-E6BB464D5960";
paths = (
{
closed = 1;
nodes = (
"0 0 LINE",
"531 0 LINE",
"531 521 LINE",
"0 521 LINE"
);
}
);
width = 531;
}
);
rightKerningGroup = numbersign;
unicode = 2211;
},
{
glyphname = minus;
lastChange = "2018-02-17 16:44:12 +0000";
layers = (
{
layerId = "1FDD38BC-4CDE-4118-9AAB-E6BB464D5960";
paths = (
{
closed = 1;
nodes = (
"0 0 LINE",
"541 0 LINE",
"541 521 LINE",
"0 521 LINE"
);
}
);
width = 541;
}
);
rightKerningGroup = numbersign;
unicode = 2212;
},
{
glyphname = uni2215;
lastChange = "2018-02-17 16:44:12 +0000";
layers = (
{
layerId = "1FDD38BC-4CDE-4118-9AAB-E6BB464D5960";
paths = (
{
closed = 1;
nodes = (
"0 0 LINE",
"590 0 LINE",
"590 521 LINE",
"0 521 LINE"
);
}
);
width = 590;
}
);
rightKerningGroup = numbersign;
unicode = 2215;
},
{
glyphname = uni2219;
lastChange = "2018-02-17 16:44:12 +0000";
layers = (
{
layerId = "1FDD38BC-4CDE-4118-9AAB-E6BB464D5960";
paths = (
{
closed = 1;
nodes = (
"0 0 LINE",
"191 0 LINE",
"191 521 LINE",
"0 521 LINE"
);
}
);
width = 191;
}
);
rightKerningGroup = numbersign;
unicode = 2219;
},
{
glyphname = radical;
lastChange = "2018-02-17 16:44:12 +0000";
layers = (
{
layerId = "1FDD38BC-4CDE-4118-9AAB-E6BB464D5960";
paths = (
{
closed = 1;
nodes = (
"0 0 LINE",
"449 0 LINE",
"449 521 LINE",
"0 521 LINE"
);
}
);
width = 449;
}
);
rightKerningGroup = numbersign;
unicode = 221A;
},
{
glyphname = infinity;
lastChange = "2018-02-17 16:44:12 +0000";
layers = (
{
layerId = "1FDD38BC-4CDE-4118-9AAB-E6BB464D5960";
paths = (
{
closed = 1;
nodes = (
"0 0 LINE",
"693 0 LINE",
"693 521 LINE",
"0 521 LINE"
);
}
);
width = 693;
}
);
rightKerningGroup = numbersign;
unicode = 221E;
},
{
glyphname = integral;
lastChange = "2018-02-17 16:44:12 +0000";
layers = (
{
layerId = "1FDD38BC-4CDE-4118-9AAB-E6BB464D5960";
paths = (
{
closed = 1;
nodes = (
"0 0 LINE",
"302 0 LINE",
"302 521 LINE",
"0 521 LINE"
);
}
);
width = 302;
}
);
rightKerningGroup = numbersign;
unicode = 222B;
},
{
glyphname = approxequal;
lastChange = "2018-02-17 16:44:12 +0000";
layers = (
{
layerId = "1FDD38BC-4CDE-4118-9AAB-E6BB464D5960";
paths = (
{
closed = 1;
nodes = (
"0 0 LINE",
"434 0 LINE",
"434 521 LINE",
"0 521 LINE"
);
}
);
width = 434;
}
);
rightKerningGroup = numbersign;
unicode = 2248;
},
{
glyphname = notequal;
lastChange = "2018-02-17 16:44:12 +0000";
layers = (
{
layerId = "1FDD38BC-4CDE-4118-9AAB-E6BB464D5960";
paths = (
{
closed = 1;
nodes = (
"0 0 LINE",
"469 0 LINE",
"469 521 LINE",
"0 521 LINE"
);
}
);
width = 469;
}
);
rightKerningGroup = numbersign;
unicode = 2260;
},
{
glyphname = lessequal;
lastChange = "2018-02-17 16:44:12 +0000";
layers = (
{
layerId = "1FDD38BC-4CDE-4118-9AAB-E6BB464D5960";
paths = (
{
closed = 1;
nodes = (
"0 0 LINE",
"452 0 LINE",
"452 521 LINE",
"0 521 LINE"
);
}
);
width = 452;
}
);
rightKerningGroup = numbersign;
unicode = 2264;
},
{
glyphname = greaterequal;
lastChange = "2018-02-17 16:44:12 +0000";
layers = (
{
layerId = "1FDD38BC-4CDE-4118-9AAB-E6BB464D5960";
paths = (
{
closed = 1;
nodes = (
"0 0 LINE",
"452 0 LINE",
"452 521 LINE",
"0 521 LINE"
);
}
);
width = 452;
}
);
rightKerningGroup = numbersign;
unicode = 2265;
},
{
glyphname = lozenge;
lastChange = "2018-02-17 16:44:12 +0000";
layers = (
{
layerId = "1FDD38BC-4CDE-4118-9AAB-E6BB464D5960";
paths = (
{
closed = 1;
nodes = (
"0 0 LINE",
"510 0 LINE",
"510 521 LINE",
"0 521 LINE"
);
}
);
width = 510;
}
);
rightKerningGroup = numbersign;
unicode = 25CA;
},
{
glyphname = uni0406;
lastChange = "2018-02-17 16:44:12 +0000";
layers = (
{
layerId = "1FDD38BC-4CDE-4118-9AAB-E6BB464D5960";
paths = (
{
closed = 1;
nodes = (
"0 0 LINE",
"251 0 LINE",
"251 521 LINE",
"0 521 LINE"
);
}
);
width = 251;
}
);
rightKerningGroup = uni0406;
unicode = 0406;
},
{
glyphname = uni0407;
lastChange = "2018-02-17 16:44:12 +0000";
layers = (
{
layerId = "1FDD38BC-4CDE-4118-9AAB-E6BB464D5960";
paths = (
{
closed = 1;
nodes = (
"0 0 LINE",
"249 0 LINE",
"249 521 LINE",
"0 521 LINE"
);
}
);
width = 249;
}
);
rightKerningGroup = uni0406;
unicode = 0407;
},
{
glyphname = uni0409;
lastChange = "2018-02-17 16:44:12 +0000";
layers = (
{
layerId = "1FDD38BC-4CDE-4118-9AAB-E6BB464D5960";
paths = (
{
closed = 1;
nodes = (
"0 0 LINE",
"997 0 LINE",
"997 521 LINE",
"0 521 LINE"
);
}
);
width = 997;
}
);
leftKerningGroup = uni0409;
rightKerningGroup = uni0409;
unicode = 0409;
},
{
glyphname = uni040A;
lastChange = "2018-02-17 16:44:12 +0000";
layers = (
{
layerId = "1FDD38BC-4CDE-4118-9AAB-E6BB464D5960";
paths = (
{
closed = 1;
nodes = (
"0 0 LINE",
"1040 0 LINE",
"1040 521 LINE",
"0 521 LINE"
);
}
);
width = 1040;
}
);
rightKerningGroup = uni0409;
unicode = 040A;
},
{
glyphname = uni040B;
lastChange = "2018-02-17 16:44:12 +0000";
layers = (
{
layerId = "1FDD38BC-4CDE-4118-9AAB-E6BB464D5960";
paths = (
{
closed = 1;
nodes = (
"0 0 LINE",
"705 0 LINE",
"705 521 LINE",
"0 521 LINE"
);
}
);
width = 705;
}
);
leftKerningGroup = uni040B;
rightKerningGroup = uni040B;
unicode = 040B;
},
{
glyphname = uni040C;
lastChange = "2018-02-17 16:44:12 +0000";
layers = (
{
layerId = "1FDD38BC-4CDE-4118-9AAB-E6BB464D5960";
paths = (
{
closed = 1;
nodes = (
"0 0 LINE",
"606 0 LINE",
"606 521 LINE",
"0 521 LINE"
);
}
);
width = 606;
}
);
rightKerningGroup = uni040C;
unicode = 040C;
},
{
glyphname = uni041A;
lastChange = "2018-02-17 16:44:12 +0000";
layers = (
{
layerId = "1FDD38BC-4CDE-4118-9AAB-E6BB464D5960";
paths = (
{
closed = 1;
nodes = (
"0 0 LINE",
"605 0 LINE",
"605 521 LINE",
"0 521 LINE"
);
}
);
width = 605;
}
);
rightKerningGroup = uni040C;
unicode = 041A;
},
{
glyphname = uni040D;
lastChange = "2018-02-17 10:49:40 +0000";
layers = (
{
layerId = "1FDD38BC-4CDE-4118-9AAB-E6BB464D5960";
paths = (
{
closed = 1;
nodes = (
"0 0 LINE",
"731 0 LINE",
"731 521 LINE",
"0 521 LINE"
);
}
);
width = 731;
}
);
rightKerningGroup = uni0406;
unicode = 040D;
},
{
glyphname = uni0418;
lastChange = "2018-02-17 16:44:12 +0000";
layers = (
{
layerId = "1FDD38BC-4CDE-4118-9AAB-E6BB464D5960";
paths = (
{
closed = 1;
nodes = (
"0 0 LINE",
"750 0 LINE",
"750 521 LINE",
"0 521 LINE"
);
}
);
width = 750;
}
);
rightKerningGroup = uni0406;
unicode = 0418;
},
{
glyphname = uni040E;
lastChange = "2018-02-17 16:44:12 +0000";
layers = (
{
layerId = "1FDD38BC-4CDE-4118-9AAB-E6BB464D5960";
paths = (
{
closed = 1;
nodes = (
"0 0 LINE",
"621 0 LINE",
"621 521 LINE",
"0 521 LINE"
);
}
);
width = 621;
}
);
leftKerningGroup = uni040E;
rightKerningGroup = uni040E;
unicode = 040E;
},
{
glyphname = uni040F;
lastChange = "2018-02-17 16:44:12 +0000";
layers = (
{
layerId = "1FDD38BC-4CDE-4118-9AAB-E6BB464D5960";
paths = (
{
closed = 1;
nodes = (
"0 0 LINE",
"692 0 LINE",
"692 521 LINE",
"0 521 LINE"
);
}
);
width = 692;
}
);
rightKerningGroup = uni0406;
unicode = 040F;
},
{
glyphname = uni0410;
lastChange = "2018-02-17 16:44:12 +0000";
layers = (
{
layerId = "1FDD38BC-4CDE-4118-9AAB-E6BB464D5960";
paths = (
{
closed = 1;
nodes = (
"0 0 LINE",
"673 0 LINE",
"673 521 LINE",
"0 521 LINE"
);
}
);
width = 673;
}
);
leftKerningGroup = uni0410;
rightKerningGroup = uni0410;
unicode = 0410;
},
{
glyphname = uni0411;
lastChange = "2018-02-17 16:44:12 +0000";
layers = (
{
layerId = "1FDD38BC-4CDE-4118-9AAB-E6BB464D5960";
paths = (
{
closed = 1;
nodes = (
"0 0 LINE",
"652 0 LINE",
"652 521 LINE",
"0 521 LINE"
);
}
);
width = 652;
}
);
rightKerningGroup = uni0411;
unicode = 0411;
},
{
glyphname = uni0412;
lastChange = "2018-02-17 16:44:12 +0000";
layers = (
{
layerId = "1FDD38BC-4CDE-4118-9AAB-E6BB464D5960";
paths = (
{
closed = 1;
nodes = (
"0 0 LINE",
"667 0 LINE",
"667 521 LINE",
"0 521 LINE"
);
}
);
width = 667;
}
);
rightKerningGroup = uni0412;
unicode = 0412;
},
{
glyphname = uni0415;
lastChange = "2018-02-17 16:44:12 +0000";
layers = (
{
layerId = "1FDD38BC-4CDE-4118-9AAB-E6BB464D5960";
paths = (
{
closed = 1;
nodes = (
"0 0 LINE",
"606 0 LINE",
"606 521 LINE",
"0 521 LINE"
);
}
);
width = 606;
}
);
rightKerningGroup = uni0415;
unicode = 0415;
},
{
glyphname = uni0416;
lastChange = "2018-02-17 16:44:12 +0000";
layers = (
{
layerId = "1FDD38BC-4CDE-4118-9AAB-E6BB464D5960";
paths = (
{
closed = 1;
nodes = (
"0 0 LINE",
"944 0 LINE",
"944 521 LINE",
"0 521 LINE"
);
}
);
width = 944;
}
);
leftKerningGroup = uni0416;
rightKerningGroup = uni0416;
unicode = 0416;
},
{
glyphname = uni041C;
lastChange = "2018-02-17 16:44:12 +0000";
layers = (
{
layerId = "1FDD38BC-4CDE-4118-9AAB-E6BB464D5960";
paths = (
{
closed = 1;
nodes = (
"0 0 LINE",
"879 0 LINE",
"879 521 LINE",
"0 521 LINE"
);
}
);
width = 879;
}
);
rightKerningGroup = uni0406;
unicode = 041C;
},
{
glyphname = uni041D;
lastChange = "2018-02-17 16:44:12 +0000";
layers = (
{
layerId = "1FDD38BC-4CDE-4118-9AAB-E6BB464D5960";
paths = (
{
closed = 1;
nodes = (
"0 0 LINE",
"741 0 LINE",
"741 521 LINE",
"0 521 LINE"
);
}
);
width = 741;
}
);
rightKerningGroup = uni0406;
unicode = 041D;
},
{
glyphname = uni041E;
lastChange = "2018-02-17 16:44:12 +0000";
layers = (
{
layerId = "1FDD38BC-4CDE-4118-9AAB-E6BB464D5960";
paths = (
{
closed = 1;
nodes = (
"0 0 LINE",
"750 0 LINE",
"750 521 LINE",
"0 521 LINE"
);
}
);
width = 750;
}
);
leftKerningGroup = uni041E;
rightKerningGroup = uni041E;
unicode = 041E;
},
{
glyphname = uni041F;
lastChange = "2018-02-17 16:44:12 +0000";
layers = (
{
layerId = "1FDD38BC-4CDE-4118-9AAB-E6BB464D5960";
paths = (
{
closed = 1;
nodes = (
"0 0 LINE",
"727 0 LINE",
"727 521 LINE",
"0 521 LINE"
);
}
);
width = 727;
}
);
rightKerningGroup = uni0406;
unicode = 041F;
},
{
glyphname = uni0420;
lastChange = "2018-02-17 16:44:12 +0000";
layers = (
{
layerId = "1FDD38BC-4CDE-4118-9AAB-E6BB464D5960";
paths = (
{
closed = 1;
nodes = (
"0 0 LINE",
"624 0 LINE",
"624 521 LINE",
"0 521 LINE"
);
}
);
width = 624;
}
);
rightKerningGroup = uni0420;
unicode = 0420;
},
{
glyphname = uni0421;
lastChange = "2018-02-17 16:44:12 +0000";
layers = (
{
layerId = "1FDD38BC-4CDE-4118-9AAB-E6BB464D5960";
paths = (
{
closed = 1;
nodes = (
"0 0 LINE",
"682 0 LINE",
"682 521 LINE",
"0 521 LINE"
);
}
);
width = 682;
}
);
leftKerningGroup = uni041E;
rightKerningGroup = uni0421;
unicode = 0421;
},
{
glyphname = uni0422;
lastChange = "2018-02-17 16:44:12 +0000";
layers = (
{
layerId = "1FDD38BC-4CDE-4118-9AAB-E6BB464D5960";
paths = (
{
closed = 1;
nodes = (
"0 0 LINE",
"607 0 LINE",
"607 521 LINE",
"0 521 LINE"
);
}
);
width = 607;
}
);
leftKerningGroup = uni0422;
rightKerningGroup = uni0422;
unicode = 0422;
},
{
glyphname = uni0423;
lastChange = "2018-02-17 16:44:12 +0000";
layers = (
{
layerId = "1FDD38BC-4CDE-4118-9AAB-E6BB464D5960";
paths = (
{
closed = 1;
nodes = (
"0 0 LINE",
"619 0 LINE",
"619 521 LINE",
"0 521 LINE"
);
}
);
width = 619;
}
);
leftKerningGroup = uni040E;
rightKerningGroup = uni040E;
unicode = 0423;
},
{
glyphname = uni0424;
lastChange = "2018-02-17 10:55:11 +0000";
layers = (
{
layerId = "1FDD38BC-4CDE-4118-9AAB-E6BB464D5960";
paths = (
{
closed = 1;
nodes = (
"0 0 LINE",
"740 0 LINE",
"740 521 LINE",
"0 521 LINE"
);
}
);
width = 740;
}
);
leftKerningGroup = uni0424;
rightKerningGroup = uni0424;
unicode = 0424;
},
{
glyphname = uni0425;
lastChange = "2018-02-17 16:44:12 +0000";
layers = (
{
layerId = "1FDD38BC-4CDE-4118-9AAB-E6BB464D5960";
paths = (
{
closed = 1;
nodes = (
"0 0 LINE",
"632 0 LINE",
"632 521 LINE",
"0 521 LINE"
);
}
);
width = 632;
}
);
leftKerningGroup = uni0425;
rightKerningGroup = uni0425;
unicode = 0425;
},
{
glyphname = uni0426;
lastChange = "2018-02-17 10:57:12 +0000";
layers = (
{
layerId = "1FDD38BC-4CDE-4118-9AAB-E6BB464D5960";
paths = (
{
closed = 1;
nodes = (
"0 0 LINE",
"720 0 LINE",
"720 521 LINE",
"0 521 LINE"
);
}
);
width = 720;
}
);
rightKerningGroup = uni0426;
unicode = 0426;
},
{
glyphname = uni0427;
lastChange = "2018-02-17 10:56:52 +0000";
layers = (
{
layerId = "1FDD38BC-4CDE-4118-9AAB-E6BB464D5960";
paths = (
{
closed = 1;
nodes = (
"0 0 LINE",
"610 0 LINE",
"610 521 LINE",
"0 521 LINE"
);
}
);
width = 610;
}
);
leftKerningGroup = uni0427;
rightKerningGroup = uni0406;
unicode = 0427;
},
{
glyphname = uni0428;
lastChange = "2018-02-17 10:55:58 +0000";
layers = (
{
layerId = "1FDD38BC-4CDE-4118-9AAB-E6BB464D5960";
paths = (
{
closed = 1;
nodes = (
"0 0 LINE",
"932 0 LINE",
"932 521 LINE",
"0 521 LINE"
);
}
);
width = 932;
}
);
rightKerningGroup = uni0406;
unicode = 0428;
},
{
glyphname = uni0429;
lastChange = "2018-02-17 10:56:17 +0000";
layers = (
{
layerId = "1FDD38BC-4CDE-4118-9AAB-E6BB464D5960";
paths = (
{
closed = 1;
nodes = (
"0 0 LINE",
"962 0 LINE",
"962 521 LINE",
"0 521 LINE"
);
}
);
width = 962;
}
);
rightKerningGroup = uni0426;
unicode = 0429;
},
{
glyphname = uni042A;
lastChange = "2018-02-17 16:44:12 +0000";
layers = (
{
layerId = "1FDD38BC-4CDE-4118-9AAB-E6BB464D5960";
paths = (
{
closed = 1;
nodes = (
"0 0 LINE",
"738 0 LINE",
"738 521 LINE",
"0 521 LINE"
);
}
);
width = 738;
}
);
leftKerningGroup = uni042A;
rightKerningGroup = uni0409;
unicode = 042A;
},
{
glyphname = uni042B;
lastChange = "2018-02-17 16:44:12 +0000";
layers = (
{
layerId = "1FDD38BC-4CDE-4118-9AAB-E6BB464D5960";
paths = (
{
closed = 1;
nodes = (
"0 0 LINE",
"821 0 LINE",
"821 521 LINE",
"0 521 LINE"
);
}
);
width = 821;
}
);
rightKerningGroup = uni0406;
unicode = 042B;
},
{
glyphname = uni042C;
lastChange = "2018-02-17 16:44:12 +0000";
layers = (
{
layerId = "1FDD38BC-4CDE-4118-9AAB-E6BB464D5960";
paths = (
{
closed = 1;
nodes = (
"0 0 LINE",
"592 0 LINE",
"592 521 LINE",
"0 521 LINE"
);
}
);
width = 592;
}
);
rightKerningGroup = uni0409;
unicode = 042C;
},
{
glyphname = uni042D;
lastChange = "2018-02-17 16:44:12 +0000";
layers = (
{
layerId = "1FDD38BC-4CDE-4118-9AAB-E6BB464D5960";
paths = (
{
closed = 1;
nodes = (
"0 0 LINE",
"702 0 LINE",
"702 521 LINE",
"0 521 LINE"
);
}
);
width = 702;
}
);
leftKerningGroup = uni042D;
rightKerningGroup = uni041E;
unicode = 042D;
},
{
glyphname = uni042E;
lastChange = "2018-02-17 16:44:12 +0000";
layers = (
{
layerId = "1FDD38BC-4CDE-4118-9AAB-E6BB464D5960";
paths = (
{
closed = 1;
nodes = (
"0 0 LINE",
"980 0 LINE",
"980 521 LINE",
"0 521 LINE"
);
}
);
width = 980;
}
);
rightKerningGroup = uni041E;
unicode = 042E;
},
{
glyphname = uni042F;
lastChange = "2018-02-17 16:44:12 +0000";
layers = (
{
layerId = "1FDD38BC-4CDE-4118-9AAB-E6BB464D5960";
paths = (
{
closed = 1;
nodes = (
"0 0 LINE",
"634 0 LINE",
"634 521 LINE",
"0 521 LINE"
);
}
);
width = 634;
}
);
leftKerningGroup = uni042F;
rightKerningGroup = uni0406;
unicode = 042F;
},
{
glyphname = uni0400;
lastChange = "2018-02-17 16:44:12 +0000";
layers = (
{
components = (
{
name = grave;
transform = "{1, 0, 0, 1, 160, 184}";
}
);
layerId = "1FDD38BC-4CDE-4118-9AAB-E6BB464D5960";
paths = (
{
closed = 1;
nodes = (
"0 0 LINE",
"611 0 LINE",
"611 521 LINE",
"0 521 LINE"
);
}
);
width = 611;
}
);
rightKerningGroup = numbersign;
unicode = 0400;
},
{
glyphname = uni0401;
lastChange = "2018-02-17 16:44:12 +0000";
layers = (
{
components = (
{
name = dieresis;
transform = "{1, 0, 0, 1, 161, 190}";
}
);
layerId = "1FDD38BC-4CDE-4118-9AAB-E6BB464D5960";
paths = (
{
closed = 1;
nodes = (
"0 0 LINE",
"611 0 LINE",
"611 521 LINE",
"0 521 LINE"
);
}
);
width = 611;
}
);
rightKerningGroup = uni0415;
unicode = 0401;
},
{
glyphname = uni0402;
lastChange = "2018-02-17 16:44:12 +0000";
layers = (
{
layerId = "1FDD38BC-4CDE-4118-9AAB-E6BB464D5960";
paths = (
{
closed = 1;
nodes = (
"0 0 LINE",
"703 0 LINE",
"703 521 LINE",
"0 521 LINE"
);
}
);
width = 703;
}
);
leftKerningGroup = uni040B;
rightKerningGroup = uni0402;
unicode = 0402;
},
{
glyphname = uni0403;
lastChange = "2018-02-17 16:44:12 +0000";
layers = (
{
components = (
{
name = acute;
transform = "{1, 0, 0, 1, 199, 186}";
}
);
layerId = "1FDD38BC-4CDE-4118-9AAB-E6BB464D5960";
paths = (
{
closed = 1;
nodes = (
"0 0 LINE",
"521 0 LINE",
"521 521 LINE",
"0 521 LINE"
);
}
);
width = 521;
}
);
rightKerningGroup = uni0403;
unicode = 0403;
},
{
glyphname = uni0413;
lastChange = "2018-02-17 16:44:12 +0000";
layers = (
{
layerId = "1FDD38BC-4CDE-4118-9AAB-E6BB464D5960";
paths = (
{
closed = 1;
nodes = (
"0 0 LINE",
"521 0 LINE",
"521 521 LINE",
"0 521 LINE"
);
}
);
width = 521;
}
);
rightKerningGroup = uni0403;
unicode = 0413;
},
{
glyphname = uni0404;
lastChange = "2018-02-17 16:44:12 +0000";
layers = (
{
layerId = "1FDD38BC-4CDE-4118-9AAB-E6BB464D5960";
paths = (
{
closed = 1;
nodes = (
"0 0 LINE",
"702 0 LINE",
"702 521 LINE",
"0 521 LINE"
);
}
);
width = 702;
}
);
leftKerningGroup = uni041E;
rightKerningGroup = uni0404;
unicode = 0404;
},
{
glyphname = uni0405;
lastChange = "2018-02-17 16:44:12 +0000";
layers = (
{
layerId = "1FDD38BC-4CDE-4118-9AAB-E6BB464D5960";
paths = (
{
closed = 1;
nodes = (
"0 0 LINE",
"609 0 LINE",
"609 521 LINE",
"0 521 LINE"
);
}
);
width = 609;
}
);
leftKerningGroup = uni0405;
rightKerningGroup = uni0405;
unicode = 0405;
},
{
glyphname = uni0414;
lastChange = "2018-02-17 16:44:12 +0000";
layers = (
{
layerId = "1FDD38BC-4CDE-4118-9AAB-E6BB464D5960";
paths = (
{
closed = 1;
nodes = (
"0 0 LINE",
"708 0 LINE",
"708 521 LINE",
"0 521 LINE"
);
}
);
width = 708;
}
);
leftKerningGroup = uni0414;
rightKerningGroup = uni0426;
unicode = 0414;
},
{
glyphname = uni0417;
lastChange = "2018-02-17 16:44:12 +0000";
layers = (
{
layerId = "1FDD38BC-4CDE-4118-9AAB-E6BB464D5960";
paths = (
{
closed = 1;
nodes = (
"0 0 LINE",
"525 0 LINE",
"525 521 LINE",
"0 521 LINE"
);
}
);
width = 525;
}
);
leftKerningGroup = uni0417;
rightKerningGroup = uni0417;
unicode = 0417;
},
{
glyphname = uni0419;
lastChange = "2018-02-17 16:44:12 +0000";
layers = (
{
layerId = "1FDD38BC-4CDE-4118-9AAB-E6BB464D5960";
paths = (
{
closed = 1;
nodes = (
"0 0 LINE",
"750 0 LINE",
"750 521 LINE",
"0 521 LINE"
);
}
);
width = 750;
}
);
rightKerningGroup = uni0406;
unicode = 0419;
},
{
glyphname = uni041B;
lastChange = "2018-02-17 16:44:12 +0000";
layers = (
{
layerId = "1FDD38BC-4CDE-4118-9AAB-E6BB464D5960";
paths = (
{
closed = 1;
nodes = (
"0 0 LINE",
"652 0 LINE",
"652 521 LINE",
"0 521 LINE"
);
}
);
width = 652;
}
);
leftKerningGroup = uni0409;
rightKerningGroup = uni0406;
unicode = 041B;
},
{
glyphname = uni0431;
lastChange = "2018-02-17 16:44:12 +0000";
layers = (
{
layerId = "1FDD38BC-4CDE-4118-9AAB-E6BB464D5960";
paths = (
{
closed = 1;
nodes = (
"0 0 LINE",
"583 0 LINE",
"583 521 LINE",
"0 521 LINE"
);
}
);
width = 583;
}
);
leftKerningGroup = uni0431;
rightKerningGroup = uni0431;
unicode = 0431;
},
{
glyphname = uni0432;
lastChange = "2018-02-17 16:44:12 +0000";
layers = (
{
layerId = "1FDD38BC-4CDE-4118-9AAB-E6BB464D5960";
paths = (
{
closed = 1;
nodes = (
"0 0 LINE",
"525 0 LINE",
"525 521 LINE",
"0 521 LINE"
);
}
);
width = 525;
}
);
leftKerningGroup = uni0432;
rightKerningGroup = uni0432;
unicode = 0432;
},
{
glyphname = uni0433;
lastChange = "2018-02-17 16:44:12 +0000";
layers = (
{
layerId = "1FDD38BC-4CDE-4118-9AAB-E6BB464D5960";
paths = (
{
closed = 1;
nodes = (
"0 0 LINE",
"417 0 LINE",
"417 521 LINE",
"0 521 LINE"
);
}
);
width = 417;
}
);
leftKerningGroup = uni0432;
rightKerningGroup = uni0433;
unicode = 0433;
},
{
glyphname = uni0434;
lastChange = "2018-02-17 16:44:12 +0000";
layers = (
{
layerId = "1FDD38BC-4CDE-4118-9AAB-E6BB464D5960";
paths = (
{
closed = 1;
nodes = (
"0 0 LINE",
"579 0 LINE",
"579 521 LINE",
"0 521 LINE"
);
}
);
width = 579;
}
);
leftKerningGroup = uni0434;
rightKerningGroup = uni0434;
unicode = 0434;
},
{
glyphname = uni0435;
lastChange = "2018-02-17 16:44:12 +0000";
layers = (
{
layerId = "1FDD38BC-4CDE-4118-9AAB-E6BB464D5960";
paths = (
{
closed = 1;
nodes = (
"0 0 LINE",
"589 0 LINE",
"589 521 LINE",
"0 521 LINE"
);
}
);
width = 589;
}
);
leftKerningGroup = uni0435;
rightKerningGroup = uni0435;
unicode = 0435;
},
{
glyphname = uni0436;
lastChange = "2018-02-17 16:44:12 +0000";
layers = (
{
layerId = "1FDD38BC-4CDE-4118-9AAB-E6BB464D5960";
paths = (
{
closed = 1;
nodes = (
"0 0 LINE",
"754 0 LINE",
"754 521 LINE",
"0 521 LINE"
);
}
);
width = 754;
}
);
leftKerningGroup = uni0436;
rightKerningGroup = uni0436;
unicode = 0436;
},
{
glyphname = uni0437;
lastChange = "2018-02-17 16:44:12 +0000";
layers = (
{
layerId = "1FDD38BC-4CDE-4118-9AAB-E6BB464D5960";
paths = (
{
closed = 1;
nodes = (
"0 0 LINE",
"411 0 LINE",
"411 521 LINE",
"0 521 LINE"
);
}
);
width = 411;
}
);
leftKerningGroup = uni0437;
rightKerningGroup = uni0437;
unicode = 0437;
},
{
glyphname = uni0438;
lastChange = "2018-02-17 16:44:12 +0000";
layers = (
{
layerId = "1FDD38BC-4CDE-4118-9AAB-E6BB464D5960";
paths = (
{
closed = 1;
nodes = (
"0 0 LINE",
"588 0 LINE",
"588 521 LINE",
"0 521 LINE"
);
}
);
width = 588;
}
);
leftKerningGroup = uni0432;
rightKerningGroup = uni0438;
unicode = 0438;
},
{
glyphname = uni0439;
lastChange = "2018-02-17 16:44:12 +0000";
layers = (
{
layerId = "1FDD38BC-4CDE-4118-9AAB-E6BB464D5960";
paths = (
{
closed = 1;
nodes = (
"0 0 LINE",
"587 0 LINE",
"587 521 LINE",
"0 521 LINE"
);
}
);
width = 587;
}
);
leftKerningGroup = uni0432;
rightKerningGroup = uni0438;
unicode = 0439;
},
{
glyphname = uni043A;
lastChange = "2018-02-17 16:44:12 +0000";
layers = (
{
layerId = "1FDD38BC-4CDE-4118-9AAB-E6BB464D5960";
paths = (
{
closed = 1;
nodes = (
"0 0 LINE",
"486 0 LINE",
"486 521 LINE",
"0 521 LINE"
);
}
);
width = 486;
}
);
leftKerningGroup = uni0432;
rightKerningGroup = uni043A;
unicode = 043A;
},
{
glyphname = uni043B;
lastChange = "2018-02-17 16:44:12 +0000";
layers = (
{
layerId = "1FDD38BC-4CDE-4118-9AAB-E6BB464D5960";
paths = (
{
closed = 1;
nodes = (
"0 0 LINE",
"540 0 LINE",
"540 521 LINE",
"0 521 LINE"
);
}
);
width = 540;
}
);
leftKerningGroup = uni043B;
rightKerningGroup = uni0438;
unicode = 043B;
},
{
glyphname = uni043C;
lastChange = "2018-02-17 16:44:12 +0000";
layers = (
{
layerId = "1FDD38BC-4CDE-4118-9AAB-E6BB464D5960";
paths = (
{
closed = 1;
nodes = (
"0 0 LINE",
"678 0 LINE",
"678 521 LINE",
"0 521 LINE"
);
}
);
width = 678;
}
);
leftKerningGroup = uni0432;
rightKerningGroup = uni0438;
unicode = 043C;
},
{
glyphname = uni043D;
lastChange = "2018-02-17 16:44:12 +0000";
layers = (
{
layerId = "1FDD38BC-4CDE-4118-9AAB-E6BB464D5960";
paths = (
{
closed = 1;
nodes = (
"0 0 LINE",
"580 0 LINE",
"580 521 LINE",
"0 521 LINE"
);
}
);
width = 580;
}
);
leftKerningGroup = uni0432;
rightKerningGroup = uni0438;
unicode = 043D;
},
{
glyphname = uni043E;
lastChange = "2018-02-17 16:44:12 +0000";
layers = (
{
layerId = "1FDD38BC-4CDE-4118-9AAB-E6BB464D5960";
paths = (
{
closed = 1;
nodes = (
"0 0 LINE",
"597 0 LINE",
"597 521 LINE",
"0 521 LINE"
);
}
);
width = 597;
}
);
leftKerningGroup = uni0435;
rightKerningGroup = uni043E;
unicode = 043E;
},
{
glyphname = uni043F;
lastChange = "2018-02-17 16:44:12 +0000";
layers = (
{
layerId = "1FDD38BC-4CDE-4118-9AAB-E6BB464D5960";
paths = (
{
closed = 1;
nodes = (
"0 0 LINE",
"565 0 LINE",
"565 521 LINE",
"0 521 LINE"
);
}
);
width = 565;
}
);
leftKerningGroup = uni0432;
rightKerningGroup = uni0438;
unicode = 043F;
},
{
glyphname = uni0440;
lastChange = "2018-02-17 16:44:12 +0000";
layers = (
{
layerId = "1FDD38BC-4CDE-4118-9AAB-E6BB464D5960";
paths = (
{
closed = 1;
nodes = (
"0 0 LINE",
"621 0 LINE",
"621 521 LINE",
"0 521 LINE"
);
}
);
width = 621;
}
);
leftKerningGroup = uni0432;
rightKerningGroup = uni043E;
unicode = 0440;
},
{
glyphname = uni0441;
lastChange = "2018-02-17 16:44:12 +0000";
layers = (
{
layerId = "1FDD38BC-4CDE-4118-9AAB-E6BB464D5960";
paths = (
{
closed = 1;
nodes = (
"0 0 LINE",
"551 0 LINE",
"551 521 LINE",
"0 521 LINE"
);
}
);
width = 551;
}
);
leftKerningGroup = uni0435;
rightKerningGroup = uni0441;
unicode = 0441;
},
{
glyphname = uni0442;
lastChange = "2018-02-17 16:44:12 +0000";
layers = (
{
layerId = "1FDD38BC-4CDE-4118-9AAB-E6BB464D5960";
paths = (
{
closed = 1;
nodes = (
"0 0 LINE",
"476 0 LINE",
"476 521 LINE",
"0 521 LINE"
);
}
);
width = 476;
}
);
leftKerningGroup = uni0442;
rightKerningGroup = uni0442;
unicode = 0442;
},
{
glyphname = uni0443;
lastChange = "2018-02-17 16:44:12 +0000";
layers = (
{
layerId = "1FDD38BC-4CDE-4118-9AAB-E6BB464D5960";
paths = (
{
closed = 1;
nodes = (
"0 0 LINE",
"544 0 LINE",
"544 521 LINE",
"0 521 LINE"
);
}
);
width = 544;
}
);
leftKerningGroup = uni0443;
rightKerningGroup = uni0443;
unicode = 0443;
},
{
glyphname = uni0444;
lastChange = "2018-02-17 16:44:12 +0000";
layers = (
{
layerId = "1FDD38BC-4CDE-4118-9AAB-E6BB464D5960";
paths = (
{
closed = 1;
nodes = (
"0 0 LINE",
"680 0 LINE",
"680 521 LINE",
"0 521 LINE"
);
}
);
width = 680;
}
);
leftKerningGroup = uni0435;
rightKerningGroup = uni043E;
unicode = 0444;
},
{
glyphname = uni0445;
lastChange = "2018-02-17 16:44:12 +0000";
layers = (
{
layerId = "1FDD38BC-4CDE-4118-9AAB-E6BB464D5960";
paths = (
{
closed = 1;
nodes = (
"0 0 LINE",
"506 0 LINE",
"506 521 LINE",
"0 521 LINE"
);
}
);
width = 506;
}
);
leftKerningGroup = uni0445;
rightKerningGroup = uni0445;
unicode = 0445;
},
{
glyphname = uni0446;
lastChange = "2018-02-17 16:44:12 +0000";
layers = (
{
layerId = "1FDD38BC-4CDE-4118-9AAB-E6BB464D5960";
paths = (
{
closed = 1;
nodes = (
"0 0 LINE",
"571 0 LINE",
"571 521 LINE",
"0 521 LINE"
);
}
);
width = 571;
}
);
leftKerningGroup = uni0432;
rightKerningGroup = uni0434;
unicode = 0446;
},
{
glyphname = uni0447;
lastChange = "2018-02-17 16:44:12 +0000";
layers = (
{
layerId = "1FDD38BC-4CDE-4118-9AAB-E6BB464D5960";
paths = (
{
closed = 1;
nodes = (
"0 0 LINE",
"482 0 LINE",
"482 521 LINE",
"0 521 LINE"
);
}
);
width = 482;
}
);
leftKerningGroup = uni0447;
rightKerningGroup = uni0438;
unicode = 0447;
},
{
glyphname = uni0448;
lastChange = "2018-02-17 16:44:12 +0000";
layers = (
{
layerId = "1FDD38BC-4CDE-4118-9AAB-E6BB464D5960";
paths = (
{
closed = 1;
nodes = (
"0 0 LINE",
"747 0 LINE",
"747 521 LINE",
"0 521 LINE"
);
}
);
width = 747;
}
);
leftKerningGroup = uni0432;
rightKerningGroup = uni0438;
unicode = 0448;
},
{
glyphname = uni0449;
lastChange = "2018-02-17 16:44:12 +0000";
layers = (
{
layerId = "1FDD38BC-4CDE-4118-9AAB-E6BB464D5960";
paths = (
{
closed = 1;
nodes = (
"0 0 LINE",
"775 0 LINE",
"775 521 LINE",
"0 521 LINE"
);
}
);
width = 775;
}
);
leftKerningGroup = uni0432;
rightKerningGroup = uni0434;
unicode = 0449;
},
{
glyphname = uni044A;
lastChange = "2018-02-17 16:44:12 +0000";
layers = (
{
layerId = "1FDD38BC-4CDE-4118-9AAB-E6BB464D5960";
paths = (
{
closed = 1;
nodes = (
"0 0 LINE",
"576 0 LINE",
"576 521 LINE",
"0 521 LINE"
);
}
);
width = 576;
}
);
leftKerningGroup = uni044A;
rightKerningGroup = uni044A;
unicode = 044A;
},
{
glyphname = uni044B;
lastChange = "2018-02-17 16:44:12 +0000";
layers = (
{
layerId = "1FDD38BC-4CDE-4118-9AAB-E6BB464D5960";
paths = (
{
closed = 1;
nodes = (
"0 0 LINE",
"641 0 LINE",
"641 521 LINE",
"0 521 LINE"
);
}
);
width = 641;
}
);
leftKerningGroup = uni0432;
rightKerningGroup = uni0438;
unicode = 044B;
},
{
glyphname = uni044C;
lastChange = "2018-02-17 16:44:12 +0000";
layers = (
{
layerId = "1FDD38BC-4CDE-4118-9AAB-E6BB464D5960";
paths = (
{
closed = 1;
nodes = (
"0 0 LINE",
"463 0 LINE",
"463 521 LINE",
"0 521 LINE"
);
}
);
width = 463;
}
);
leftKerningGroup = uni0432;
rightKerningGroup = uni044A;
unicode = 044C;
},
{
glyphname = uni044D;
lastChange = "2018-02-17 16:44:12 +0000";
layers = (
{
layerId = "1FDD38BC-4CDE-4118-9AAB-E6BB464D5960";
paths = (
{
closed = 1;
nodes = (
"0 0 LINE",
"543 0 LINE",
"543 521 LINE",
"0 521 LINE"
);
}
);
width = 543;
}
);
leftKerningGroup = uni044D;
rightKerningGroup = uni043E;
unicode = 044D;
},
{
glyphname = uni044E;
lastChange = "2018-02-17 16:44:12 +0000";
layers = (
{
layerId = "1FDD38BC-4CDE-4118-9AAB-E6BB464D5960";
paths = (
{
closed = 1;
nodes = (
"0 0 LINE",
"745 0 LINE",
"745 521 LINE",
"0 521 LINE"
);
}
);
width = 745;
}
);
leftKerningGroup = uni0432;
rightKerningGroup = uni043E;
unicode = 044E;
},
{
glyphname = uni044F;
lastChange = "2018-02-17 16:44:12 +0000";
layers = (
{
layerId = "1FDD38BC-4CDE-4118-9AAB-E6BB464D5960";
paths = (
{
closed = 1;
nodes = (
"0 0 LINE",
"497 0 LINE",
"497 521 LINE",
"0 521 LINE"
);
}
);
width = 497;
}
);
leftKerningGroup = uni044F;
rightKerningGroup = uni0438;
unicode = 044F;
},
{
glyphname = uni0450;
lastChange = "2018-02-17 16:44:12 +0000";
layers = (
{
components = (
{
name = grave;
transform = "{1, 0, 0, 1, 121, 0}";
}
);
layerId = "1FDD38BC-4CDE-4118-9AAB-E6BB464D5960";
paths = (
{
closed = 1;
nodes = (
"0 0 LINE",
"589 0 LINE",
"589 521 LINE",
"0 521 LINE"
);
}
);
width = 589;
}
);
rightKerningGroup = numbersign;
unicode = 0450;
},
{
glyphname = uni0451;
lastChange = "2018-02-17 16:44:12 +0000";
layers = (
{
components = (
{
name = dieresis;
transform = "{1, 0, 0, 1, 131, 0}";
}
);
layerId = "1FDD38BC-4CDE-4118-9AAB-E6BB464D5960";
paths = (
{
closed = 1;
nodes = (
"0 0 LINE",
"589 0 LINE",
"589 521 LINE",
"0 521 LINE"
);
}
);
width = 589;
}
);
leftKerningGroup = uni0435;
rightKerningGroup = uni0435;
unicode = 0451;
},
{
glyphname = uni0452;
lastChange = "2018-02-17 16:44:12 +0000";
layers = (
{
layerId = "1FDD38BC-4CDE-4118-9AAB-E6BB464D5960";
paths = (
{
closed = 1;
nodes = (
"0 0 LINE",
"587 0 LINE",
"587 521 LINE",
"0 521 LINE"
);
}
);
width = 587;
}
);
rightKerningGroup = uni0452;
unicode = 0452;
},
{
glyphname = uni0453;
lastChange = "2018-02-17 16:44:12 +0000";
layers = (
{
components = (
{
name = acute;
transform = "{1, 0, 0, 1, 139, 0}";
}
);
layerId = "1FDD38BC-4CDE-4118-9AAB-E6BB464D5960";
paths = (
{
closed = 1;
nodes = (
"0 0 LINE",
"418 0 LINE",
"418 521 LINE",
"0 521 LINE"
);
}
);
width = 418;
}
);
leftKerningGroup = uni0432;
rightKerningGroup = uni0433;
unicode = 0453;
},
{
glyphname = uni0454;
lastChange = "2018-02-17 16:44:12 +0000";
layers = (
{
layerId = "1FDD38BC-4CDE-4118-9AAB-E6BB464D5960";
paths = (
{
closed = 1;
nodes = (
"0 0 LINE",
"543 0 LINE",
"543 521 LINE",
"0 521 LINE"
);
}
);
width = 543;
}
);
leftKerningGroup = uni0435;
rightKerningGroup = uni0454;
unicode = 0454;
},
{
glyphname = uni0455;
lastChange = "2018-02-17 16:44:12 +0000";
layers = (
{
layerId = "1FDD38BC-4CDE-4118-9AAB-E6BB464D5960";
paths = (
{
closed = 1;
nodes = (
"0 0 LINE",
"489 0 LINE",
"489 521 LINE",
"0 521 LINE"
);
}
);
width = 489;
}
);
leftKerningGroup = uni0455;
rightKerningGroup = uni0455;
unicode = 0455;
},
{
glyphname = uni0456;
lastChange = "2018-02-17 16:44:12 +0000";
layers = (
{
components = (
{
name = dotaccent;
transform = "{1, 0, 0, 1, 27, 0}";
}
);
layerId = "1FDD38BC-4CDE-4118-9AAB-E6BB464D5960";
paths = (
{
closed = 1;
nodes = (
"0 0 LINE",
"222 0 LINE",
"222 521 LINE",
"0 521 LINE"
);
}
);
width = 222;
}
);
leftKerningGroup = uni0456;
rightKerningGroup = numbersign;
unicode = 0456;
},
{
glyphname = uni0457;
lastChange = "2018-02-17 16:44:12 +0000";
layers = (
{
components = (
{
name = dieresis;
}
);
layerId = "1FDD38BC-4CDE-4118-9AAB-E6BB464D5960";
paths = (
{
closed = 1;
nodes = (
"54 0 LINE",
"276 0 LINE",
"276 521 LINE",
"54 521 LINE"
);
}
);
width = 276;
}
);
leftKerningGroup = uni0456;
rightKerningGroup = numbersign;
unicode = 0457;
},
{
glyphname = uni0459;
lastChange = "2018-02-17 16:44:12 +0000";
layers = (
{
layerId = "1FDD38BC-4CDE-4118-9AAB-E6BB464D5960";
paths = (
{
closed = 1;
nodes = (
"0 0 LINE",
"800 0 LINE",
"800 521 LINE",
"0 521 LINE"
);
}
);
width = 800;
}
);
leftKerningGroup = uni043B;
rightKerningGroup = uni044A;
unicode = 0459;
},
{
glyphname = uni045A;
lastChange = "2018-02-17 16:44:12 +0000";
layers = (
{
layerId = "1FDD38BC-4CDE-4118-9AAB-E6BB464D5960";
paths = (
{
closed = 1;
nodes = (
"0 0 LINE",
"802 0 LINE",
"802 521 LINE",
"0 521 LINE"
);
}
);
width = 802;
}
);
leftKerningGroup = uni0432;
rightKerningGroup = uni044A;
unicode = 045A;
},
{
glyphname = uni045B;
lastChange = "2018-02-17 16:44:12 +0000";
layers = (
{
layerId = "1FDD38BC-4CDE-4118-9AAB-E6BB464D5960";
paths = (
{
closed = 1;
nodes = (
"0 0 LINE",
"587 0 LINE",
"587 521 LINE",
"0 521 LINE"
);
}
);
width = 587;
}
);
rightKerningGroup = uni045B;
unicode = 045B;
},
{
glyphname = uni045C;
lastChange = "2018-02-17 16:44:12 +0000";
layers = (
{
components = (
{
name = acute;
transform = "{1, 0, 0, 1, 181, 0}";
}
);
layerId = "1FDD38BC-4CDE-4118-9AAB-E6BB464D5960";
paths = (
{
closed = 1;
nodes = (
"0 0 LINE",
"486 0 LINE",
"486 521 LINE",
"0 521 LINE"
);
}
);
width = 486;
}
);
leftKerningGroup = uni0432;
rightKerningGroup = uni043A;
unicode = 045C;
},
{
glyphname = uni045D;
lastChange = "2018-02-17 16:44:12 +0000";
layers = (
{
components = (
{
name = grave;
transform = "{1, 0, 0, 1, 142, 0}";
}
);
layerId = "1FDD38BC-4CDE-4118-9AAB-E6BB464D5960";
paths = (
{
closed = 1;
nodes = (
"0 0 LINE",
"571 0 LINE",
"571 521 LINE",
"0 521 LINE"
);
}
);
width = 571;
}
);
leftKerningGroup = uni0432;
rightKerningGroup = uni0438;
unicode = 045D;
},
{
glyphname = uni045E;
lastChange = "2018-02-17 16:44:12 +0000";
layers = (
{
layerId = "1FDD38BC-4CDE-4118-9AAB-E6BB464D5960";
paths = (
{
closed = 1;
nodes = (
"0 0 LINE",
"544 0 LINE",
"544 521 LINE",
"0 521 LINE"
);
}
);
width = 544;
}
);
leftKerningGroup = uni0443;
rightKerningGroup = uni0443;
unicode = 045E;
},
{
glyphname = uni045F;
lastChange = "2018-02-17 16:44:12 +0000";
layers = (
{
layerId = "1FDD38BC-4CDE-4118-9AAB-E6BB464D5960";
paths = (
{
closed = 1;
nodes = (
"0 0 LINE",
"543 0 LINE",
"543 521 LINE",
"0 521 LINE"
);
}
);
width = 543;
}
);
leftKerningGroup = uni0432;
rightKerningGroup = uni0438;
unicode = 045F;
},
{
glyphname = uni0490;
lastChange = "2018-02-17 16:44:12 +0000";
layers = (
{
layerId = "1FDD38BC-4CDE-4118-9AAB-E6BB464D5960";
paths = (
{
closed = 1;
nodes = (
"0 0 LINE",
"521 0 LINE",
"521 521 LINE",
"0 521 LINE"
);
}
);
width = 521;
}
);
rightKerningGroup = uni0403;
unicode = 0490;
},
{
glyphname = uni0491;
lastChange = "2018-02-17 16:44:12 +0000";
layers = (
{
layerId = "1FDD38BC-4CDE-4118-9AAB-E6BB464D5960";
paths = (
{
closed = 1;
nodes = (
"0 0 LINE",
"427 0 LINE",
"427 521 LINE",
"0 521 LINE"
);
}
);
width = 427;
}
);
leftKerningGroup = uni0432;
rightKerningGroup = uni0433;
unicode = 0491;
},
{
glyphname = uni04B0;
lastChange = "2018-02-17 16:44:12 +0000";
layers = (
{
layerId = "1FDD38BC-4CDE-4118-9AAB-E6BB464D5960";
paths = (
{
closed = 1;
nodes = (
"0 0 LINE",
"622 0 LINE",
"622 521 LINE",
"0 521 LINE"
);
}
);
width = 622;
}
);
leftKerningGroup = uni04B0;
rightKerningGroup = uni04B0;
unicode = 04B0;
},
{
glyphname = uni04B1;
lastChange = "2018-02-17 16:44:12 +0000";
layers = (
{
layerId = "1FDD38BC-4CDE-4118-9AAB-E6BB464D5960";
paths = (
{
closed = 1;
nodes = (
"0 0 LINE",
"550 0 LINE",
"550 521 LINE",
"0 521 LINE"
);
}
);
width = 550;
}
);
leftKerningGroup = uni04B1;
rightKerningGroup = uni04B1;
unicode = 04B1;
},
{
glyphname = backslash.001;
lastChange = "2018-02-17 11:00:58 +0000";
layers = (
{
annotations = (
{
angle = 134.85899;
position = "{57, 718}";
type = Arrow;
},
{
position = "{-71.568, 810.178}";
text = "Four CMD click to rigt";
type = Text;
width = 135.355;
}
);
layerId = "1FDD38BC-4CDE-4118-9AAB-E6BB464D5960";
paths = (
{
closed = 1;
nodes = (
"-1 0 LINE",
"569 0 LINE",
"569 521 LINE",
"-1 521 LINE"
);
}
);
width = 568;
}
);
leftKerningGroup = backslash;
rightKerningGroup = backslash;
},
{
glyphname = periodcentered.001;
lastChange = "2018-02-17 11:01:49 +0000";
layers = (
{
layerId = "1FDD38BC-4CDE-4118-9AAB-E6BB464D5960";
paths = (
{
closed = 1;
nodes = (
"1 0 LINE",
"191 0 LINE",
"191 521 LINE",
"1 521 LINE"
);
}
);
width = 190;
}
);
leftKerningGroup = periodcentered;
rightKerningGroup = periodcentered;
},
{
glyphname = bullet.001;
lastChange = "2018-02-17 11:03:32 +0000";
layers = (
{
layerId = "1FDD38BC-4CDE-4118-9AAB-E6BB464D5960";
paths = (
{
closed = 1;
nodes = (
"-1 0 LINE",
"353 0 LINE",
"353 521 LINE",
"-1 521 LINE"
);
}
);
width = 351;
}
);
rightKerningGroup = numbersign;
},
{
glyphname = colon.001;
lastChange = "2018-02-17 14:28:10 +0000";
layers = (
{
layerId = "1FDD38BC-4CDE-4118-9AAB-E6BB464D5960";
paths = (
{
closed = 1;
nodes = (
"-1 0 LINE",
"190 0 LINE",
"190 521 LINE",
"-1 521 LINE"
);
}
);
width = 188;
}
);
leftKerningGroup = colon;
rightKerningGroup = colon;
},
{
glyphname = comma.001;
lastChange = "2018-02-17 14:28:22 +0000";
layers = (
{
layerId = "1FDD38BC-4CDE-4118-9AAB-E6BB464D5960";
paths = (
{
closed = 1;
nodes = (
"-1 0 LINE",
"227 0 LINE",
"227 521 LINE",
"-1 521 LINE"
);
}
);
width = 225;
}
);
leftKerningGroup = comma;
rightKerningGroup = comma;
},
{
glyphname = ellipsis.001;
lastChange = "2018-02-17 14:28:33 +0000";
layers = (
{
layerId = "1FDD38BC-4CDE-4118-9AAB-E6BB464D5960";
paths = (
{
closed = 1;
nodes = (
"-1 0 LINE",
"459 0 LINE",
"459 521 LINE",
"-1 521 LINE"
);
}
);
width = 457;
}
);
leftKerningGroup = comma;
rightKerningGroup = numbersign;
},
{
glyphname = exclam.001;
lastChange = "2018-02-17 14:28:43 +0000";
layers = (
{
layerId = "1FDD38BC-4CDE-4118-9AAB-E6BB464D5960";
paths = (
{
closed = 1;
nodes = (
"-1 0 LINE",
"253 0 LINE",
"253 521 LINE",
"-1 521 LINE"
);
}
);
width = 252;
}
);
leftKerningGroup = exclam;
},
{
glyphname = exclamdown.001;
lastChange = "2018-02-17 14:28:54 +0000";
layers = (
{
layerId = "1FDD38BC-4CDE-4118-9AAB-E6BB464D5960";
paths = (
{
closed = 1;
nodes = (
"-1 0 LINE",
"253 0 LINE",
"253 521 LINE",
"-1 521 LINE"
);
}
);
width = 251;
}
);
rightKerningGroup = exclamdown;
},
{
glyphname = period.001;
lastChange = "2018-02-17 14:29:03 +0000";
layers = (
{
layerId = "1FDD38BC-4CDE-4118-9AAB-E6BB464D5960";
paths = (
{
closed = 1;
nodes = (
"-1 0 LINE",
"190 0 LINE",
"190 521 LINE",
"-1 521 LINE"
);
}
);
width = 189;
}
);
leftKerningGroup = comma;
rightKerningGroup = comma;
},
{
glyphname = question.001;
lastChange = "2018-02-17 14:29:13 +0000";
layers = (
{
layerId = "1FDD38BC-4CDE-4118-9AAB-E6BB464D5960";
paths = (
{
closed = 1;
nodes = (
"-1 0 LINE",
"478 0 LINE",
"478 521 LINE",
"-1 521 LINE"
);
}
);
width = 476;
}
);
leftKerningGroup = question;
rightKerningGroup = numbersign;
},
{
glyphname = questiondown.001;
lastChange = "2018-02-17 14:29:25 +0000";
layers = (
{
layerId = "1FDD38BC-4CDE-4118-9AAB-E6BB464D5960";
paths = (
{
closed = 1;
nodes = (
"-1 0 LINE",
"470 0 LINE",
"470 521 LINE",
"-1 521 LINE"
);
}
);
width = 469;
}
);
rightKerningGroup = questiondown;
},
{
glyphname = quotedbl.001;
lastChange = "2018-02-17 14:29:52 +0000";
layers = (
{
layerId = "1FDD38BC-4CDE-4118-9AAB-E6BB464D5960";
paths = (
{
closed = 1;
nodes = (
"-1 0 LINE",
"294 0 LINE",
"294 521 LINE",
"-1 521 LINE"
);
}
);
width = 292;
}
);
leftKerningGroup = quotedbl;
rightKerningGroup = quotedbl;
},
{
glyphname = quotesingle.001;
lastChange = "2018-02-17 14:30:00 +0000";
layers = (
{
layerId = "1FDD38BC-4CDE-4118-9AAB-E6BB464D5960";
paths = (
{
closed = 1;
nodes = (
"-1 0 LINE",
"198 0 LINE",
"198 521 LINE",
"-1 521 LINE"
);
}
);
width = 197;
}
);
leftKerningGroup = quotedbl;
rightKerningGroup = quotedbl;
},
{
glyphname = semicolon.001;
lastChange = "2018-02-17 14:30:09 +0000";
layers = (
{
layerId = "1FDD38BC-4CDE-4118-9AAB-E6BB464D5960";
paths = (
{
closed = 1;
nodes = (
"-1 0 LINE",
"207 0 LINE",
"207 521 LINE",
"-1 521 LINE"
);
}
);
width = 205;
}
);
leftKerningGroup = colon;
rightKerningGroup = colon;
},
{
glyphname = slash.001;
lastChange = "2018-02-17 14:30:21 +0000";
layers = (
{
annotations = (
{
angle = 207.241;
position = "{47, -9}";
type = Arrow;
},
{
position = "{-82.898, -78.872}";
text = "Four CMD Click to right";
type = Text;
}
);
layerId = "1FDD38BC-4CDE-4118-9AAB-E6BB464D5960";
paths = (
{
closed = 1;
nodes = (
"-1 0 LINE",
"605 0 LINE",
"605 521 LINE",
"-1 521 LINE"
);
}
);
width = 604;
}
);
leftKerningGroup = slash;
rightKerningGroup = slash;
},
{
glyphname = emdash.001;
lastChange = "2018-02-17 14:43:09 +0000";
layers = (
{
layerId = "1FDD38BC-4CDE-4118-9AAB-E6BB464D5960";
paths = (
{
closed = 1;
nodes = (
"-1 0 LINE",
"902 0 LINE",
"902 521 LINE",
"-1 521 LINE"
);
}
);
width = 901;
}
);
leftKerningGroup = hyphen;
rightKerningGroup = hyphen;
},
{
glyphname = quotedblbase.001;
lastChange = "2018-02-17 14:43:21 +0000";
layers = (
{
layerId = "1FDD38BC-4CDE-4118-9AAB-E6BB464D5960";
paths = (
{
closed = 1;
nodes = (
"-1 0 LINE",
"344 0 LINE",
"344 521 LINE",
"-1 521 LINE"
);
}
);
width = 343;
}
);
leftKerningGroup = comma;
rightKerningGroup = comma;
},
{
glyphname = quotedblleft.001;
lastChange = "2018-02-17 14:43:31 +0000";
layers = (
{
layerId = "1FDD38BC-4CDE-4118-9AAB-E6BB464D5960";
paths = (
{
closed = 1;
nodes = (
"-1 0 LINE",
"317 0 LINE",
"317 521 LINE",
"-1 521 LINE"
);
}
);
width = 316;
}
);
leftKerningGroup = quoteleft;
rightKerningGroup = quoteleft;
},
{
glyphname = quotedblright.001;
lastChange = "2018-02-17 14:43:40 +0000";
layers = (
{
layerId = "1FDD38BC-4CDE-4118-9AAB-E6BB464D5960";
paths = (
{
closed = 1;
nodes = (
"-1 0 LINE",
"312 0 LINE",
"312 521 LINE",
"-1 521 LINE"
);
}
);
width = 311;
}
);
leftKerningGroup = quoteright;
rightKerningGroup = quoteright;
},
{
glyphname = quoteleft.001;
lastChange = "2018-02-17 14:43:49 +0000";
layers = (
{
layerId = "1FDD38BC-4CDE-4118-9AAB-E6BB464D5960";
paths = (
{
closed = 1;
nodes = (
"-1 0 LINE",
"197 0 LINE",
"197 521 LINE",
"-1 521 LINE"
);
}
);
width = 196;
}
);
leftKerningGroup = quoteleft;
rightKerningGroup = quoteleft;
},
{
glyphname = quoteright.001;
lastChange = "2018-02-17 14:44:00 +0000";
layers = (
{
layerId = "1FDD38BC-4CDE-4118-9AAB-E6BB464D5960";
paths = (
{
closed = 1;
nodes = (
"-1 0 LINE",
"191 0 LINE",
"191 521 LINE",
"-1 521 LINE"
);
}
);
width = 190;
}
);
leftKerningGroup = quoteright;
rightKerningGroup = quoteright;
},
{
glyphname = quotesinglbase.001;
lastChange = "2018-02-17 14:44:10 +0000";
layers = (
{
layerId = "1FDD38BC-4CDE-4118-9AAB-E6BB464D5960";
paths = (
{
closed = 1;
nodes = (
"-1 0 LINE",
"226 0 LINE",
"226 521 LINE",
"-1 521 LINE"
);
}
);
width = 225;
}
);
leftKerningGroup = comma;
rightKerningGroup = comma;
},
{
glyphname = divide.001;
lastChange = "2018-02-17 10:59:52 +0000";
layers = (
{
layerId = "1FDD38BC-4CDE-4118-9AAB-E6BB464D5960";
paths = (
{
closed = 1;
nodes = (
"1 0 LINE",
"538 0 LINE",
"538 521 LINE",
"1 521 LINE"
);
}
);
width = 537;
}
);
rightKerningGroup = numbersign;
},
{
glyphname = arrowup;
lastChange = "2018-02-17 11:00:26 +0000";
layers = (
{
background = {
paths = (
{
closed = 1;
nodes = (
"827 377 LINE",
"464 740 LINE",
"101 377 LINE",
"146 333 LINE",
"433 620 LINE",
"433 -61 LINE",
"496 -62 LINE",
"496 620 LINE",
"783 333 LINE"
);
}
);
};
layerId = "1FDD38BC-4CDE-4118-9AAB-E6BB464D5960";
paths = (
{
closed = 1;
nodes = (
"1 0 LINE",
"911 0 LINE",
"911 521 LINE",
"1 521 LINE"
);
}
);
width = 910;
}
);
unicode = 2191;
},
{
glyphname = arrowupright;
lastChange = "2018-02-17 15:25:37 +0000";
layers = (
{
layerId = "1FDD38BC-4CDE-4118-9AAB-E6BB464D5960";
paths = (
{
closed = 1;
nodes = (
"-1 0 LINE",
"911 0 LINE",
"911 521 LINE",
"-1 521 LINE"
);
}
);
width = 910;
}
);
unicode = 2197;
},
{
glyphname = arrowright;
lastChange = "2018-02-17 15:25:50 +0000";
layers = (
{
background = {
paths = (
{
closed = 1;
nodes = (
"833 329 LINE",
"833 392 LINE",
"63 392 LINE",
"63 329 LINE"
);
},
{
closed = 1;
nodes = (
"864 361 LINE",
"820 405 LINE",
"457 42 LINE",
"501 -2 LINE"
);
},
{
closed = 1;
nodes = (
"820 316 LINE",
"864 361 LINE",
"501 724 LINE",
"457 679 LINE"
);
}
);
};
layerId = "1FDD38BC-4CDE-4118-9AAB-E6BB464D5960";
paths = (
{
closed = 1;
nodes = (
"-1 0 LINE",
"911 0 LINE",
"911 521 LINE",
"-1 521 LINE"
);
}
);
width = 910;
}
);
unicode = 2192;
},
{
glyphname = arrowdownright;
lastChange = "2018-02-17 15:26:11 +0000";
layers = (
{
layerId = "1FDD38BC-4CDE-4118-9AAB-E6BB464D5960";
paths = (
{
closed = 1;
nodes = (
"-1 0 LINE",
"911 0 LINE",
"911 521 LINE",
"-1 521 LINE"
);
}
);
width = 910;
}
);
unicode = 2198;
},
{
glyphname = arrowdown;
lastChange = "2018-02-17 15:26:19 +0000";
layers = (
{
layerId = "1FDD38BC-4CDE-4118-9AAB-E6BB464D5960";
paths = (
{
closed = 1;
nodes = (
"-1 0 LINE",
"911 0 LINE",
"911 521 LINE",
"-1 521 LINE"
);
}
);
width = 910;
}
);
unicode = 2193;
},
{
glyphname = arrowdownleft;
lastChange = "2018-02-17 15:26:30 +0000";
layers = (
{
layerId = "1FDD38BC-4CDE-4118-9AAB-E6BB464D5960";
paths = (
{
closed = 1;
nodes = (
"-1 0 LINE",
"911 0 LINE",
"911 521 LINE",
"-1 521 LINE"
);
}
);
width = 910;
}
);
unicode = 2199;
},
{
glyphname = arrowleft;
lastChange = "2018-02-17 15:26:44 +0000";
layers = (
{
layerId = "1FDD38BC-4CDE-4118-9AAB-E6BB464D5960";
paths = (
{
closed = 1;
nodes = (
"-1 0 LINE",
"911 0 LINE",
"911 521 LINE",
"-1 521 LINE"
);
}
);
width = 910;
}
);
unicode = 2190;
},
{
glyphname = arrowupleft;
lastChange = "2018-02-17 15:26:57 +0000";
layers = (
{
layerId = "1FDD38BC-4CDE-4118-9AAB-E6BB464D5960";
paths = (
{
closed = 1;
nodes = (
"-1 0 LINE",
"911 0 LINE",
"911 521 LINE",
"-1 521 LINE"
);
}
);
width = 910;
}
);
unicode = 2196;
},
{
glyphname = uni2318;
lastChange = "2018-02-17 15:27:08 +0000";
layers = (
{
layerId = "1FDD38BC-4CDE-4118-9AAB-E6BB464D5960";
paths = (
{
closed = 1;
nodes = (
"-1 0 LINE",
"926 0 LINE",
"926 521 LINE",
"-1 521 LINE"
);
}
);
width = 925;
}
);
unicode = 2318;
},
{
glyphname = at.001;
lastChange = "2018-02-17 15:27:18 +0000";
layers = (
{
layerId = "1FDD38BC-4CDE-4118-9AAB-E6BB464D5960";
paths = (
{
closed = 1;
nodes = (
"-1 0 LINE",
"838 0 LINE",
"838 521 LINE",
"-1 521 LINE"
);
}
);
width = 837;
}
);
leftKerningGroup = at;
rightKerningGroup = at;
},
{
glyphname = hsc;
lastChange = "2018-02-17 14:30:58 +0000";
layers = (
{
layerId = "1FDD38BC-4CDE-4118-9AAB-E6BB464D5960";
paths = (
{
closed = 1;
nodes = (
"-1 0 LINE",
"643 0 LINE",
"643 521 LINE",
"-1 521 LINE"
);
}
);
width = 641;
}
);
leftKerningGroup = R.sc;
rightKerningGroup = I.sc;
},
{
glyphname = Blokkk;
lastChange = "2019-03-09 10:42:29 +0000";
layers = (
{
layerId = "1FDD38BC-4CDE-4118-9AAB-E6BB464D5960";
paths = (
{
closed = 1;
nodes = (
"-1 0 LINE",
"496 0 LINE",
"496 521 LINE",
"-1 521 LINE"
);
}
);
width = 480;
}
);
},
{
glyphname = "Blokkk-small";
lastChange = "2019-03-09 20:28:00 +0000";
layers = (
{
layerId = "1FDD38BC-4CDE-4118-9AAB-E6BB464D5960";
paths = (
{
closed = 1;
nodes = (
"0 0 LINE",
"530 0 LINE",
"530 521 LINE",
"0 521 LINE"
);
}
);
width = 520;
}
);
},
{
glyphname = "Blokkk-numbers";
lastChange = "2018-02-17 10:41:39 +0000";
layers = (
{
layerId = "1FDD38BC-4CDE-4118-9AAB-E6BB464D5960";
paths = (
{
closed = 1;
nodes = (
"0 0 LINE",
"684 0 LINE",
"684 521 LINE",
"0 521 LINE"
);
}
